# Blender v2.79 (sub 0) OBJ File: ''
# www.blender.org
mtllib bunny3.mtl
o Icosphere
v 0.233090 -0.201312 0.723386
v 0.801120 0.168485 1.197388
v 0.016126 0.168484 1.490345
v -0.469033 0.168487 0.723386
v 0.016126 0.168484 -0.043573
v 0.801120 0.168485 0.249384
v 0.450054 0.766843 1.490345
v -0.334940 0.766842 1.197388
v -0.334940 0.766842 0.249384
v 0.450054 0.766843 -0.043573
v 0.935212 0.766840 0.723386
v 0.233090 1.136639 0.723386
v 0.105563 -0.101404 1.174190
v 0.566967 -0.101404 1.001996
v 0.439441 0.115958 1.452804
v 0.900847 0.115959 0.723386
v 0.566967 -0.101404 0.444776
v -0.179607 -0.101402 0.723386
v -0.307137 0.115959 1.174191
v 0.105563 -0.101404 0.272582
v -0.307137 0.115959 0.272581
v 0.439441 0.115958 -0.006032
v 0.979668 0.467663 1.001997
v 0.979668 0.467663 0.444775
v 0.233090 0.467663 1.625002
v 0.694500 0.467663 1.452808
v -0.513488 0.467663 1.001997
v -0.228320 0.467663 1.452808
v -0.228320 0.467663 -0.006036
v -0.513488 0.467663 0.444775
v 0.694500 0.467663 -0.006036
v 0.233090 0.467663 -0.178230
v 0.773317 0.819368 1.174191
v 0.026738 0.819369 1.452804
v -0.434667 0.819368 0.723386
v 0.026738 0.819369 -0.006032
v 0.773317 0.819368 0.272581
v 0.360617 1.036731 1.174190
v 0.645787 1.036729 0.723386
v -0.100787 1.036731 1.001996
v -0.100787 1.036731 0.444776
v 0.360617 1.036731 0.272582
vn 0.0894 -0.9668 0.2395
vn 0.6536 -0.7248 0.2178
vn -0.2327 -0.9613 0.1472
vn -0.2327 -0.9613 -0.1472
vn 0.0894 -0.9668 -0.2395
vn 0.8944 -0.3832 0.2306
vn 0.0272 -0.4266 0.9040
vn -0.8822 -0.3844 0.2720
vn -0.6038 -0.4074 -0.6851
vn 0.5651 -0.4099 -0.7160
vn 0.8351 -0.1534 0.5283
vn -0.3448 -0.1658 0.9239
vn -0.9891 -0.1470 0.0000
vn -0.3448 -0.1658 -0.9239
vn 0.8351 -0.1534 -0.5283
vn 0.3954 0.7508 0.5291
vn -0.4529 0.7462 0.4879
vn -0.6536 0.7248 -0.2178
vn 0.0380 0.7653 -0.6426
vn 0.6735 0.7222 -0.1577
vn 0.2327 0.9613 -0.1472
vn 0.4470 0.8487 -0.2828
vn 0.3954 0.7508 -0.5291
vn -0.0894 0.9668 -0.2395
vn -0.1744 0.8668 -0.4672
vn -0.4529 0.7462 -0.4879
vn -0.2867 0.9580 0.0000
vn -0.5456 0.8381 0.0000
vn -0.6536 0.7248 0.2178
vn -0.0894 0.9668 0.2395
vn -0.1744 0.8668 0.4672
vn 0.0380 0.7653 0.6426
vn 0.2327 0.9613 0.1472
vn 0.4470 0.8487 0.2828
vn 0.6735 0.7222 0.1577
vn 0.8822 0.3844 -0.2720
vn 0.8229 0.2279 -0.5205
vn 0.6038 0.4074 -0.6851
vn -0.0272 0.4266 -0.9040
vn -0.3389 0.2458 -0.9081
vn -0.5651 0.4099 -0.7160
vn -0.8944 0.3832 -0.2306
vn -0.9758 0.2187 0.0000
vn -0.8944 0.3832 0.2306
vn -0.5651 0.4099 0.7160
vn -0.3389 0.2458 0.9081
vn -0.0272 0.4266 0.9040
vn 0.6038 0.4074 0.6851
vn 0.8229 0.2279 0.5205
vn 0.8822 0.3844 0.2720
vn 0.3448 0.1658 -0.9239
vn 0.3389 -0.2458 -0.9081
vn 0.0272 -0.4266 -0.9040
vn -0.8351 0.1534 -0.5283
vn -0.8229 -0.2279 -0.5205
vn -0.8822 -0.3844 -0.2720
vn -0.8351 0.1534 0.5283
vn -0.8229 -0.2279 0.5205
vn -0.6038 -0.4074 0.6851
vn 0.3448 0.1658 0.9239
vn 0.3389 -0.2458 0.9081
vn 0.5651 -0.4099 0.7160
vn 0.9891 0.1470 0.0000
vn 0.9758 -0.2187 0.0000
vn 0.8944 -0.3832 -0.2306
vn 0.4529 -0.7462 -0.4879
vn 0.1744 -0.8668 -0.4672
vn -0.0380 -0.7653 -0.6426
vn -0.3954 -0.7508 -0.5291
vn -0.4470 -0.8487 -0.2828
vn -0.6735 -0.7222 -0.1577
vn -0.6735 -0.7222 0.1577
vn -0.4470 -0.8487 0.2828
vn -0.3954 -0.7508 0.5291
vn 0.6536 -0.7248 -0.2178
vn 0.5456 -0.8381 0.0000
vn 0.2867 -0.9580 0.0000
vn -0.0380 -0.7653 0.6426
vn 0.1744 -0.8668 0.4672
vn 0.4529 -0.7462 0.4879
usemtl Material.001
s off
f 1//1 14//1 13//1
f 2//2 14//2 16//2
f 1//3 13//3 18//3
f 1//4 18//4 20//4
f 1//5 20//5 17//5
f 2//6 16//6 23//6
f 3//7 15//7 25//7
f 4//8 19//8 27//8
f 5//9 21//9 29//9
f 6//10 22//10 31//10
f 2//11 23//11 26//11
f 3//12 25//12 28//12
f 4//13 27//13 30//13
f 5//14 29//14 32//14
f 6//15 31//15 24//15
f 7//16 33//16 38//16
f 8//17 34//17 40//17
f 9//18 35//18 41//18
f 10//19 36//19 42//19
f 11//20 37//20 39//20
f 39//21 42//21 12//21
f 39//22 37//22 42//22
f 37//23 10//23 42//23
f 42//24 41//24 12//24
f 42//25 36//25 41//25
f 36//26 9//26 41//26
f 41//27 40//27 12//27
f 41//28 35//28 40//28
f 35//29 8//29 40//29
f 40//30 38//30 12//30
f 40//31 34//31 38//31
f 34//32 7//32 38//32
f 38//33 39//33 12//33
f 38//34 33//34 39//34
f 33//35 11//35 39//35
f 24//36 37//36 11//36
f 24//37 31//37 37//37
f 31//38 10//38 37//38
f 32//39 36//39 10//39
f 32//40 29//40 36//40
f 29//41 9//41 36//41
f 30//42 35//42 9//42
f 30//43 27//43 35//43
f 27//44 8//44 35//44
f 28//45 34//45 8//45
f 28//46 25//46 34//46
f 25//47 7//47 34//47
f 26//48 33//48 7//48
f 26//49 23//49 33//49
f 23//50 11//50 33//50
f 31//51 32//51 10//51
f 31//52 22//52 32//52
f 22//53 5//53 32//53
f 29//54 30//54 9//54
f 29//55 21//55 30//55
f 21//56 4//56 30//56
f 27//57 28//57 8//57
f 27//58 19//58 28//58
f 19//59 3//59 28//59
f 25//60 26//60 7//60
f 25//61 15//61 26//61
f 15//62 2//62 26//62
f 23//63 24//63 11//63
f 23//64 16//64 24//64
f 16//65 6//65 24//65
f 17//66 22//66 6//66
f 17//67 20//67 22//67
f 20//68 5//68 22//68
f 20//69 21//69 5//69
f 20//70 18//70 21//70
f 18//71 4//71 21//71
f 18//72 19//72 4//72
f 18//73 13//73 19//73
f 13//74 3//74 19//74
f 16//75 17//75 6//75
f 16//76 14//76 17//76
f 14//77 1//77 17//77
f 13//78 15//78 3//78
f 13//79 14//79 15//79
f 14//80 2//80 15//80
