# Blender v2.79 (sub 0) OBJ File: 'Level1_well_done.blend'
# www.blender.org
o Icosphere
v 0.011092 -0.315744 0.005202
v 0.235557 -0.144266 0.168283
v -0.074645 -0.144266 0.269076
v -0.266365 -0.144266 0.005202
v -0.074645 -0.144266 -0.258672
v 0.235557 -0.144266 -0.157880
v 0.096828 0.133192 0.269076
v -0.213374 0.133192 0.168283
v -0.213374 0.133192 -0.157880
v 0.096828 0.133192 -0.258672
v 0.288548 0.133192 0.005202
v 0.011092 0.304669 0.005202
vt 0.505546 0.497399
vt 0.867346 0.234539
vt 0.367353 0.072079
vt 0.867346 0.760259
vt 0.058333 0.497399
vt 0.367353 0.922719
vt 0.234539 0.273624
vt 0.760259 0.273624
vt 0.497399 0.720839
vt 0.367353 0.273624
vt 0.867346 0.273624
vt 0.643738 0.720839
vt 0.497399 0.273624
vt 0.072079 0.273624
vt 0.234539 0.720839
vt 0.922719 0.273624
vt 0.760259 0.720839
vt 0.867346 0.273624
vt 0.367353 0.273624
vt 0.643738 0.720839
vt 0.072079 0.720839
vt 0.143746 0.720839
vt 0.143746 0.720839
vt 0.922719 0.720839
vt 0.643738 0.072079
vt 0.952758 0.497399
vt 0.505546 0.497399
vt 0.143746 0.234539
vt 0.143746 0.760259
vt 0.643738 0.922719
vn 0.1876 -0.7947 0.5774
vn 0.6071 -0.7947 0.0000
vn -0.4911 -0.7947 0.3568
vn -0.4911 -0.7947 -0.3568
vn 0.1876 -0.7947 -0.5774
vn 0.9822 -0.1876 0.0000
vn 0.3035 -0.1876 0.9342
vn -0.7946 -0.1876 0.5774
vn -0.7946 -0.1876 -0.5774
vn 0.3035 -0.1876 -0.9342
vn 0.7946 0.1876 0.5774
vn -0.3035 0.1876 0.9342
vn -0.9822 0.1876 0.0000
vn -0.3035 0.1876 -0.9342
vn 0.7946 0.1876 -0.5774
vn 0.4911 0.7947 0.3568
vn -0.1876 0.7947 0.5774
vn -0.6071 0.7947 0.0000
vn -0.1876 0.7947 -0.5774
vn 0.4911 0.7947 -0.3568
s off
f 1/1/1 2/2/1 3/3/1
f 2/2/2 1/1/2 6/4/2
f 1/1/3 3/3/3 4/5/3
f 1/1/4 4/5/4 5/6/4
f 1/1/5 5/6/5 6/4/5
f 2/7/6 6/8/6 11/9/6
f 3/10/7 2/11/7 7/12/7
f 4/13/8 3/14/8 8/15/8
f 5/16/9 4/13/9 9/17/9
f 6/18/10 5/19/10 10/20/10
f 2/7/11 11/9/11 7/21/11
f 3/10/12 7/12/12 8/22/12
f 4/13/13 8/15/13 9/17/13
f 5/19/14 9/23/14 10/20/14
f 6/8/15 10/24/15 11/9/15
f 7/25/16 11/26/16 12/27/16
f 8/28/17 7/25/17 12/27/17
f 9/29/18 8/28/18 12/27/18
f 10/30/19 9/29/19 12/27/19
f 11/26/20 10/30/20 12/27/20
