# Blender v2.79 (sub 0) OBJ File: 'Level1_well_done.blend'
# www.blender.org
o Torus
v 3.151453 0.086632 -0.477228
v 3.117959 0.086632 -0.352228
v 3.026453 0.086632 -0.260722
v 2.901453 0.086632 -0.227228
v 2.776453 0.086632 -0.260722
v 2.684946 0.086632 -0.352228
v 2.651453 0.086632 -0.477228
v 2.684946 0.086632 -0.602229
v 2.776453 0.086632 -0.693735
v 2.901453 0.086632 -0.727229
v 3.026453 0.086632 -0.693735
v 3.117959 0.086632 -0.602229
v 2.680815 1.063922 -0.477228
v 2.659932 1.037736 -0.352228
v 2.602879 0.966193 -0.260722
v 2.524942 0.868464 -0.227228
v 2.447006 0.770735 -0.260722
v 2.389953 0.699193 -0.352228
v 2.369070 0.673006 -0.477228
v 2.389953 0.699193 -0.602228
v 2.447006 0.770735 -0.693735
v 2.524942 0.868464 -0.727228
v 2.602879 0.966193 -0.693735
v 2.659932 1.037736 -0.602228
v 1.623301 1.305292 -0.477228
v 1.630754 1.272638 -0.352228
v 1.651116 1.183426 -0.260722
v 1.678932 1.061560 -0.227228
v 1.706747 0.939694 -0.260722
v 1.727109 0.850482 -0.352228
v 1.734562 0.817828 -0.477228
v 1.727109 0.850482 -0.602228
v 1.706747 0.939694 -0.693735
v 1.678932 1.061560 -0.727228
v 1.651116 1.183426 -0.693735
v 1.630754 1.272638 -0.602228
v 0.775241 0.628987 -0.477228
v 0.805418 0.614455 -0.352228
v 0.887863 0.574752 -0.260722
v 1.000484 0.520516 -0.227228
v 1.113105 0.466281 -0.260722
v 1.195549 0.426578 -0.352228
v 1.225726 0.412045 -0.477228
v 1.195549 0.426578 -0.602228
v 1.113105 0.466281 -0.693735
v 1.000484 0.520516 -0.727228
v 0.887863 0.574752 -0.693735
v 0.805418 0.614455 -0.602228
v 0.775241 -0.455722 -0.477229
v 0.805418 -0.441189 -0.352229
v 0.887862 -0.401486 -0.260722
v 1.000484 -0.347251 -0.227229
v 1.113105 -0.293015 -0.260722
v 1.195549 -0.253312 -0.352229
v 1.225726 -0.238780 -0.477228
v 1.195549 -0.253312 -0.602229
v 1.113105 -0.293015 -0.693735
v 1.000484 -0.347251 -0.727229
v 0.887862 -0.401486 -0.693735
v 0.805418 -0.441189 -0.602229
v 1.623301 -1.132027 -0.477229
v 1.630754 -1.099373 -0.352229
v 1.651116 -1.010161 -0.260722
v 1.678932 -0.888295 -0.227229
v 1.706747 -0.766429 -0.260722
v 1.727109 -0.677217 -0.352229
v 1.734562 -0.644563 -0.477229
v 1.727109 -0.677217 -0.602229
v 1.706747 -0.766429 -0.693735
v 1.678932 -0.888295 -0.727229
v 1.651116 -1.010161 -0.693735
v 1.630754 -1.099373 -0.602229
v 2.680814 -0.890657 -0.477229
v 2.659931 -0.864471 -0.352229
v 2.602878 -0.792928 -0.260722
v 2.524942 -0.695199 -0.227229
v 2.447006 -0.597470 -0.260722
v 2.389952 -0.525928 -0.352229
v 2.369070 -0.499741 -0.477229
v 2.389952 -0.525928 -0.602229
v 2.447006 -0.597470 -0.693735
v 2.524942 -0.695199 -0.727229
v 2.602878 -0.792928 -0.693735
v 2.659931 -0.864471 -0.602229
v -2.551728 0.628988 -0.477228
v -2.521552 0.614456 -0.602228
v -2.521552 0.614456 -0.352228
v -2.551729 -0.455721 -0.477229
v -2.521552 -0.441189 -0.602229
v -2.521552 -0.441189 -0.352229
v -1.993163 -0.455721 -0.477229
v -1.962986 -0.441189 -0.602229
v -1.962986 0.614455 -0.602228
v -1.993163 0.628988 -0.477228
v -1.962986 0.614455 -0.352228
v -1.962986 -0.441189 -0.352229
v -1.572387 -0.441189 -0.602229
v -1.572387 0.614455 -0.602228
v -1.572387 0.614455 -0.352228
v -1.572387 -0.441189 -0.352229
v -1.602564 -0.455721 -0.477229
v -1.602564 0.628988 -0.477228
v -1.993163 -0.933251 -0.477229
v -2.551729 -0.933251 -0.477229
v -2.521552 -0.918719 -0.602229
v -2.521552 -0.918719 -0.352229
v -1.962986 -0.918719 -0.602229
v -1.962986 -0.918719 -0.352229
v -1.602564 -0.654692 -0.477229
v -1.993163 -0.654692 -0.477229
v -1.962986 -0.640160 -0.352229
v -1.962986 -0.640160 -0.602229
v -1.572387 -0.640160 -0.602229
v -1.572387 -0.640160 -0.352229
vt 0.000000 0.000000
vt 0.000000 0.000000
vt 0.000000 0.000000
vt 0.000000 0.000000
vt 0.000000 0.000000
vt 0.000000 0.000000
vt 0.000000 0.000000
vt 0.000000 0.000000
vt 0.000000 0.000000
vt 0.000000 0.000000
vt 0.000000 0.000000
vt 0.000000 0.000000
vt 0.000000 0.000000
vt 0.000000 0.000000
vt 0.000000 0.000000
vt 0.000000 0.000000
vt 0.000000 0.000000
vt 0.000000 0.000000
vt 0.000000 0.000000
vt 0.000000 0.000000
vt 0.000000 0.000000
vt 0.000000 0.000000
vt 0.000000 0.000000
vt 0.000000 0.000000
vt 0.000000 0.000000
vt 0.000000 0.000000
vt 0.000000 0.000000
vt 0.000000 0.000000
vt 0.000000 0.000000
vt 0.000000 0.000000
vt 0.000000 0.000000
vt 0.000000 0.000000
vt 0.000000 0.000000
vt 0.000000 0.000000
vt 0.000000 0.000000
vt 0.000000 0.000000
vt 0.000000 0.000000
vt 0.000000 0.000000
vt 0.000000 0.000000
vt 0.000000 0.000000
vt 0.000000 0.000000
vt 0.000000 0.000000
vt 0.000000 0.000000
vt 0.000000 0.000000
vt 0.000000 0.000000
vt 0.000000 0.000000
vt 0.000000 0.000000
vt 0.000000 0.000000
vt 0.000000 0.000000
vt 0.000000 0.000000
vt 0.000000 0.000000
vt 0.000000 0.000000
vt 0.000000 0.000000
vt 0.000000 0.000000
vt 0.000000 0.000000
vt 0.000000 0.000000
vt 0.000000 0.000000
vt 0.000000 0.000000
vt 0.000000 0.000000
vt 0.000000 0.000000
vt 0.000000 0.000000
vt 0.000000 0.000000
vt 0.000000 0.000000
vt 0.000000 0.000000
vt 0.000000 0.000000
vt 0.000000 0.000000
vt 0.000000 0.000000
vt 0.000000 0.000000
vt 0.000000 0.000000
vt 0.000000 0.000000
vt 0.000000 0.000000
vt 0.000000 0.000000
vt 0.000000 0.000000
vt 0.000000 0.000000
vt 0.000000 0.000000
vt 0.000000 0.000000
vt 0.000000 0.000000
vt 0.000000 0.000000
vt 0.000000 0.000000
vt 0.000000 0.000000
vt 0.000000 0.000000
vt 0.000000 0.000000
vt 0.000000 0.000000
vt 0.000000 0.000000
vt 0.000000 0.000000
vt 0.000000 0.000000
vt 0.000000 0.000000
vt 0.000000 0.000000
vt 0.000000 0.000000
vt 0.000000 0.000000
vt 0.000000 0.000000
vt 0.000000 0.000000
vt 0.000000 0.000000
vt 0.000000 0.000000
vt 0.000000 0.000000
vt 0.000000 0.000000
vt 0.000000 0.000000
vt 0.000000 0.000000
vt 0.000000 0.000000
vt 0.000000 0.000000
vt 0.000000 0.000000
vt 0.000000 0.000000
vt 0.000000 0.000000
vt 0.000000 0.000000
vt 0.000000 0.000000
vt 0.000000 0.000000
vt 0.000000 0.000000
vt 0.000000 0.000000
vt 0.000000 0.000000
vt 0.000000 0.000000
vt 0.698718 0.543316
vt 0.518507 0.605816
vt 0.503418 0.543316
vt 0.518507 0.480816
vt 0.713806 0.480816
vt 0.000000 0.000000
vt 0.000000 0.000000
vt 0.000000 0.000000
vt 0.000000 0.000000
vt 0.713806 0.605816
vn 0.8758 0.4218 0.2347
vn 0.6694 0.3223 0.6694
vn 0.2568 0.1237 0.9585
vn -0.2568 -0.1237 0.9585
vn -0.6694 -0.3223 0.6694
vn -0.8758 -0.4218 0.2347
vn -0.8758 -0.4218 -0.2347
vn -0.6694 -0.3223 -0.6694
vn -0.2568 -0.1237 -0.9585
vn 0.2568 0.1237 -0.9585
vn 0.6694 0.3223 -0.6694
vn 0.8758 0.4218 -0.2347
vn 0.2163 0.9477 0.2347
vn 0.1653 0.7243 0.6694
vn 0.0634 0.2779 0.9585
vn -0.0634 -0.2779 0.9585
vn -0.1653 -0.7243 0.6694
vn -0.2163 -0.9477 0.2347
vn -0.2163 -0.9477 -0.2347
vn -0.1653 -0.7243 -0.6694
vn -0.0634 -0.2779 -0.9585
vn 0.0634 0.2779 -0.9585
vn 0.1653 0.7243 -0.6694
vn 0.2163 0.9477 -0.2347
vn -0.6061 0.7600 0.2347
vn -0.4632 0.5809 0.6694
vn -0.1777 0.2229 0.9585
vn 0.1777 -0.2229 0.9585
vn 0.4632 -0.5809 0.6694
vn 0.6061 -0.7600 0.2347
vn 0.6061 -0.7600 -0.2347
vn 0.4632 -0.5809 -0.6694
vn 0.1777 -0.2229 -0.9585
vn -0.1777 0.2229 -0.9585
vn -0.4632 0.5809 -0.6694
vn -0.6061 0.7600 -0.2347
vn 0.0000 0.0000 -1.0000
vn -0.7429 0.0000 0.6694
vn -0.2851 0.0000 0.9585
vn 0.2851 -0.0000 0.9585
vn 0.7429 -0.0000 0.6694
vn 0.9721 0.0000 0.2347
vn 0.9721 0.0000 -0.2347
vn 0.7429 -0.0000 -0.6694
vn 0.2851 0.0000 -0.9585
vn -0.2851 0.0000 -0.9585
vn -0.7429 0.0000 -0.6694
vn 0.0000 0.0000 1.0000
vn -0.6061 -0.7600 0.2347
vn -0.4632 -0.5809 0.6694
vn -0.1777 -0.2229 0.9585
vn 0.1777 0.2229 0.9585
vn 0.4632 0.5809 0.6694
vn 0.6061 0.7600 0.2347
vn 0.6061 0.7600 -0.2347
vn 0.4632 0.5809 -0.6694
vn 0.1777 0.2229 -0.9585
vn -0.1777 -0.2229 -0.9585
vn -0.4632 -0.5809 -0.6694
vn -0.6061 -0.7600 -0.2347
vn 0.2163 -0.9477 0.2347
vn 0.1653 -0.7243 0.6694
vn 0.0634 -0.2779 0.9585
vn -0.0634 0.2779 0.9585
vn -0.1653 0.7243 0.6694
vn -0.2163 0.9477 0.2347
vn -0.2163 0.9477 -0.2347
vn -0.1653 0.7243 -0.6694
vn -0.0634 0.2779 -0.9585
vn 0.0634 -0.2779 -0.9585
vn 0.1653 -0.7243 -0.6694
vn 0.2163 -0.9477 -0.2347
vn 0.8758 -0.4218 0.2347
vn 0.6694 -0.3223 0.6694
vn 0.2568 -0.1237 0.9585
vn -0.2568 0.1237 0.9585
vn -0.6694 0.3223 0.6694
vn -0.8758 0.4218 0.2347
vn -0.8758 0.4218 -0.2347
vn -0.6694 0.3223 -0.6694
vn -0.2568 0.1237 -0.9585
vn 0.2568 -0.1237 -0.9585
vn 0.6694 -0.3223 -0.6694
vn 0.8758 -0.4218 -0.2347
vn -0.9721 0.0000 0.2347
vn -0.9721 0.0000 -0.2347
vn 0.0000 0.9933 0.1155
vn 0.0000 0.9933 -0.1155
vn -0.0000 -0.9933 -0.1155
vn -0.0000 -0.9933 0.1155
s off
f 13/1/1 2/2/1 1/3/1
f 2/2/2 15/4/2 3/5/2
f 15/4/3 4/6/3 3/5/3
f 16/7/4 5/8/4 4/6/4
f 5/8/5 18/9/5 6/10/5
f 18/9/6 7/11/6 6/10/6
f 19/12/7 8/13/7 7/11/7
f 20/14/8 9/15/8 8/13/8
f 21/16/9 10/17/9 9/15/9
f 22/18/10 11/19/10 10/17/10
f 23/20/11 12/21/11 11/19/11
f 12/21/12 13/1/12 1/3/12
f 25/22/13 14/23/13 13/1/13
f 26/24/14 15/4/14 14/23/14
f 27/25/15 16/7/15 15/4/15
f 28/26/16 17/27/16 16/7/16
f 17/27/17 30/28/17 18/9/17
f 30/28/18 19/12/18 18/9/18
f 31/29/19 20/14/19 19/12/19
f 32/30/20 21/16/20 20/14/20
f 33/31/21 22/18/21 21/16/21
f 22/18/22 35/32/22 23/20/22
f 35/32/23 24/33/23 23/20/23
f 36/34/24 13/1/24 24/33/24
f 37/35/25 26/24/25 25/22/25
f 38/36/26 27/25/26 26/24/26
f 39/37/27 28/26/27 27/25/27
f 40/38/28 29/39/28 28/26/28
f 41/40/29 30/28/29 29/39/29
f 42/41/30 31/29/30 30/28/30
f 43/42/31 32/30/31 31/29/31
f 32/30/32 45/43/32 33/31/32
f 45/43/33 34/44/33 33/31/33
f 34/44/34 47/45/34 35/32/34
f 47/45/35 36/34/35 35/32/35
f 48/46/36 25/22/36 36/34/36
f 93/47/37 89/48/37 86/49/37
f 50/50/38 39/37/38 38/36/38
f 51/51/39 40/38/39 39/37/39
f 52/52/40 41/40/40 40/38/40
f 41/40/41 54/53/41 42/41/41
f 42/41/42 55/54/42 43/42/42
f 55/54/43 44/55/43 43/42/43
f 56/56/44 45/43/44 44/55/44
f 57/57/45 46/58/45 45/43/45
f 58/59/46 47/45/46 46/58/46
f 59/60/47 48/46/47 47/45/47
f 96/61/48 106/62/48 108/63/48
f 61/64/49 50/50/49 49/65/49
f 62/66/50 51/51/50 50/50/50
f 63/67/51 52/52/51 51/51/51
f 52/52/52 65/68/52 53/69/52
f 53/69/53 66/70/53 54/53/53
f 66/70/54 55/54/54 54/53/54
f 55/54/55 68/71/55 56/56/55
f 56/56/56 69/72/56 57/57/56
f 69/72/57 58/59/57 57/57/57
f 70/73/58 59/60/58 58/59/58
f 71/74/59 60/75/59 59/60/59
f 72/76/60 49/65/60 60/75/60
f 73/77/61 62/66/61 61/64/61
f 74/78/62 63/67/62 62/66/62
f 75/79/63 64/80/63 63/67/63
f 76/81/64 65/68/64 64/80/64
f 77/82/65 66/70/65 65/68/65
f 78/83/66 67/84/66 66/70/66
f 79/85/67 68/71/67 67/84/67
f 80/86/68 69/72/68 68/71/68
f 81/87/69 70/73/69 69/72/69
f 70/73/70 83/88/70 71/74/70
f 83/88/71 72/76/71 71/74/71
f 84/89/72 61/64/72 72/76/72
f 73/77/73 2/2/73 74/78/73
f 2/2/74 75/79/74 74/78/74
f 3/5/75 76/81/75 75/79/75
f 4/6/76 77/82/76 76/81/76
f 5/8/77 78/83/77 77/82/77
f 6/10/78 79/85/78 78/83/78
f 7/11/79 80/86/79 79/85/79
f 8/13/80 81/87/80 80/86/80
f 9/15/81 82/90/81 81/87/81
f 10/17/82 83/88/82 82/90/82
f 11/19/83 84/89/83 83/88/83
f 12/21/84 73/77/84 84/89/84
f 88/91/85 87/92/85 85/93/85
f 89/48/86 85/93/86 86/49/86
f 94/94/87 87/92/87 95/95/87
f 95/95/48 90/96/48 96/61/48
f 91/97/43 108/63/43 103/98/43
f 94/94/88 86/49/88 85/93/88
f 102/99/88 93/47/88 94/94/88
f 101/100/43 114/101/43 109/102/43
f 99/103/48 96/61/48 100/104/48
f 102/99/87 95/95/87 99/103/87
f 96/61/48 114/101/48 100/104/48
f 97/105/37 93/47/37 98/106/37
f 48/46/37 97/105/37 98/106/37
f 49/65/89 97/105/89 60/75/89
f 37/35/87 99/103/87 38/36/87
f 38/36/48 100/104/48 50/50/48
f 49/65/90 100/104/90 101/100/90
f 37/35/88 98/106/88 102/99/88
f 103/98/89 105/107/89 107/108/89
f 103/98/90 106/62/90 104/109/90
f 88/91/85 106/62/85 90/96/85
f 88/91/86 105/107/86 104/109/86
f 92/110/37 105/107/37 89/48/37
f 91/97/42 107/108/42 92/110/42
f 109/111/90 111/112/90 110/113/90
f 109/111/89 112/114/89 113/115/89
f 91/97/85 111/116/85 96/61/85
f 97/105/37 112/117/37 92/110/37
f 91/97/86 112/117/86 110/118/86
f 101/100/42 113/119/42 97/105/42
f 13/1/1 14/23/1 2/2/1
f 2/2/2 14/23/2 15/4/2
f 15/4/3 16/7/3 4/6/3
f 16/7/4 17/27/4 5/8/4
f 5/8/5 17/27/5 18/9/5
f 18/9/6 19/12/6 7/11/6
f 19/12/7 20/14/7 8/13/7
f 20/14/8 21/16/8 9/15/8
f 21/16/9 22/18/9 10/17/9
f 22/18/10 23/20/10 11/19/10
f 23/20/11 24/33/11 12/21/11
f 12/21/12 24/33/12 13/1/12
f 25/22/13 26/24/13 14/23/13
f 26/24/14 27/25/14 15/4/14
f 27/25/15 28/26/15 16/7/15
f 28/26/16 29/39/16 17/27/16
f 17/27/17 29/39/17 30/28/17
f 30/28/18 31/29/18 19/12/18
f 31/29/19 32/30/19 20/14/19
f 32/30/20 33/31/20 21/16/20
f 33/31/21 34/44/21 22/18/21
f 22/18/22 34/44/22 35/32/22
f 35/32/23 36/34/23 24/33/23
f 36/34/24 25/22/24 13/1/24
f 37/35/25 38/36/25 26/24/25
f 38/36/26 39/37/26 27/25/26
f 39/37/27 40/38/27 28/26/27
f 40/38/28 41/40/28 29/39/28
f 41/40/29 42/41/29 30/28/29
f 42/41/30 43/42/30 31/29/30
f 43/42/31 44/55/31 32/30/31
f 32/30/32 44/55/32 45/43/32
f 45/43/33 46/58/33 34/44/33
f 34/44/34 46/58/34 47/45/34
f 47/45/35 48/46/35 36/34/35
f 48/46/36 37/35/36 25/22/36
f 93/47/37 92/110/37 89/48/37
f 50/50/38 51/51/38 39/37/38
f 51/51/39 52/52/39 40/38/39
f 52/52/40 53/69/40 41/40/40
f 41/40/41 53/69/41 54/53/41
f 42/41/42 54/53/42 55/54/42
f 55/54/43 56/56/43 44/55/43
f 56/56/44 57/57/44 45/43/44
f 57/57/45 58/59/45 46/58/45
f 58/59/46 59/60/46 47/45/46
f 59/60/47 60/75/47 48/46/47
f 96/61/48 90/96/48 106/62/48
f 61/64/49 62/66/49 50/50/49
f 62/66/50 63/67/50 51/51/50
f 63/67/51 64/80/51 52/52/51
f 52/52/52 64/80/52 65/68/52
f 53/69/53 65/68/53 66/70/53
f 66/70/54 67/84/54 55/54/54
f 55/54/55 67/84/55 68/71/55
f 56/56/56 68/71/56 69/72/56
f 69/72/57 70/73/57 58/59/57
f 70/73/58 71/74/58 59/60/58
f 71/74/59 72/76/59 60/75/59
f 72/76/60 61/64/60 49/65/60
f 73/77/61 74/78/61 62/66/61
f 74/78/62 75/79/62 63/67/62
f 75/79/63 76/81/63 64/80/63
f 76/81/64 77/82/64 65/68/64
f 77/82/65 78/83/65 66/70/65
f 78/83/66 79/85/66 67/84/66
f 79/85/67 80/86/67 68/71/67
f 80/86/68 81/87/68 69/72/68
f 81/87/69 82/90/69 70/73/69
f 70/73/70 82/90/70 83/88/70
f 83/88/71 84/89/71 72/76/71
f 84/89/72 73/77/72 61/64/72
f 73/77/73 1/3/73 2/2/73
f 2/2/74 3/5/74 75/79/74
f 3/5/75 4/6/75 76/81/75
f 4/6/76 5/8/76 77/82/76
f 5/8/77 6/10/77 78/83/77
f 6/10/78 7/11/78 79/85/78
f 7/11/79 8/13/79 80/86/79
f 8/13/80 9/15/80 81/87/80
f 9/15/81 10/17/81 82/90/81
f 10/17/82 11/19/82 83/88/82
f 11/19/83 12/21/83 84/89/83
f 12/21/84 1/3/84 73/77/84
f 88/91/85 90/96/85 87/92/85
f 89/48/86 88/91/86 85/93/86
f 94/94/87 85/93/87 87/92/87
f 95/95/48 87/92/48 90/96/48
f 91/97/43 96/61/43 108/63/43
f 94/94/88 93/47/88 86/49/88
f 102/99/88 98/106/88 93/47/88
f 101/100/43 100/104/43 114/101/43
f 99/103/48 95/95/48 96/61/48
f 102/99/87 94/94/87 95/95/87
f 96/61/48 111/116/48 114/101/48
f 97/105/37 92/110/37 93/47/37
f 48/46/37 60/75/37 97/105/37
f 49/65/89 101/100/89 97/105/89
f 37/35/87 102/99/87 99/103/87
f 38/36/48 99/103/48 100/104/48
f 49/65/90 50/50/90 100/104/90
f 37/35/88 48/46/88 98/106/88
f 103/98/89 104/109/89 105/107/89
f 103/98/90 108/63/90 106/62/90
f 88/91/85 104/109/85 106/62/85
f 88/91/86 89/48/86 105/107/86
f 92/110/37 107/108/37 105/107/37
f 91/97/42 103/98/42 107/108/42
f 109/111/90 114/120/90 111/112/90
f 109/111/89 110/113/89 112/114/89
f 91/97/85 110/118/85 111/116/85
f 97/105/37 113/119/37 112/117/37
f 91/97/86 92/110/86 112/117/86
f 101/100/42 109/102/42 113/119/42
