# Blender v2.79 (sub 0) OBJ File: 'Level1_well_done.blend'
# www.blender.org
o Cube.007_Cube.009
v 0.008322 -7.440049 -0.018100
v -1.597881 -3.643298 -0.018100
v 1.614525 2.500025 -0.018100
v 0.008322 6.296775 -0.018100
v 1.535908 -4.182608 -0.018100
v -0.935779 -6.414263 -0.018100
v -1.519264 3.039335 -0.018100
v 0.952423 5.270989 -0.018100
v -16.070805 -12.486712 0.943757
v -16.070805 11.343440 0.943757
v -16.070805 -12.486712 -1.056243
v -16.070805 11.343440 -1.056243
v 15.750148 -12.486712 0.943757
v 15.750148 11.343440 0.943757
v 15.750148 -12.486712 -1.056243
v 15.750148 11.343440 -1.056243
v 1.062571 4.428432 0.943757
v 0.706123 5.270997 0.943757
v 0.118467 5.909497 0.943757
v -0.101823 -7.052770 0.943757
v -0.689478 -6.414270 0.943757
v 1.453990 -3.988966 0.943757
v 1.646061 -1.976696 0.943757
v -1.437346 2.845693 0.943757
v -1.629417 0.833423 0.943757
v 1.474697 2.703641 0.943757
v 1.069310 -5.545923 0.943757
v -1.052666 4.402649 0.943757
v 0.474917 -6.813413 0.943757
v -1.458052 -3.846914 0.943757
v -1.660007 -1.766846 0.943757
v 0.511924 -6.763713 -1.056243
v 0.772113 -6.414280 -1.056243
v 0.772113 -6.414280 0.943757
v 1.032304 -5.654050 -1.056243
v -1.015659 4.510777 -1.056243
v -0.755468 5.271007 -1.056243
v -0.755468 5.271007 0.943757
v -0.495279 5.620440 -1.056243
v -0.458273 5.670139 0.943757
v -1.045926 -5.571705 0.943757
v 1.676652 0.623573 0.943757
v 0.127203 5.878782 -1.056243
v -0.110558 -7.022055 -1.056243
v 0.686588 5.270997 -1.056243
v -0.669944 -6.414270 -1.056243
v 1.716224 -0.571636 -1.056243
v 1.681579 0.474749 -1.056243
v 1.716224 -0.571636 0.943757
v 1.654798 -1.801742 -1.056243
v -1.699579 -0.571636 -1.056243
v -1.638153 0.658469 -1.056243
v -1.699579 -0.571636 0.943757
v -1.664935 -1.618022 -1.056243
v -1.430849 2.830335 -1.056243
v 1.447493 -3.973608 -1.056243
v 1.463607 2.719790 -1.056243
v -1.446962 -3.863063 -1.056243
v -1.054662 -5.504880 -1.056243
v 1.071307 4.361607 -1.056243
vt 0.425136 0.751968
vt 0.421675 0.271039
vt 0.439799 0.271039
vt 0.751968 0.969004
vt 0.271039 0.942210
vt 0.751968 0.925958
vt 1.271039 0.943499
vt 0.440962 1.271039
vt 0.421400 1.271039
vt 0.751968 0.085284
vt 0.271039 0.164026
vt 0.271039 0.076739
vt 0.271039 0.214182
vt 1.271039 0.214182
vt 0.751968 0.343080
vt 1.271039 0.421199
vt 1.271039 0.352302
vt 0.751968 0.459360
vt 1.271039 0.484865
vt 1.271039 0.459360
vt 0.751968 0.365711
vt 0.271039 0.422921
vt 0.271039 0.357585
vt 0.751968 0.062652
vt 1.271039 0.162562
vt 1.271039 0.071423
vt 1.271039 1.007165
vt 0.751968 1.085284
vt 0.271039 1.004361
vt 0.271039 0.969004
vt 1.271039 0.000905
vt 0.271039 -0.030997
vt 1.271039 -0.030997
vt 0.271039 1.714182
vt 1.271039 0.714182
vt 0.271039 0.714182
vt 1.421400 0.943499
vt 1.440962 0.954340
vt 1.919836 0.714182
vt 0.271039 1.714182
vt -0.728961 0.714182
vt 0.271039 0.714182
vt 0.919836 0.714182
vt 0.421675 0.942210
vt -0.080164 0.714182
vt 1.919836 0.271039
vt 0.919836 -0.728961
vt 0.919836 0.271039
vt -0.080164 0.271039
vt 0.919836 -0.728961
vt 0.919836 0.271039
vt 0.271039 0.007165
vt -0.248032 -0.030996
vt 0.271039 -0.030996
vt 0.271039 0.424003
vt 0.271039 0.351624
vt 1.428597 1.486154
vt 1.919836 1.714182
vt 0.919836 1.714182
vt 0.271039 0.459360
vt 0.271039 0.486154
vt -0.248032 0.502405
vt -0.728961 0.459360
vt 0.271039 0.459360
vt 1.271039 0.969003
vt 1.271039 0.954340
vt 1.271039 0.214182
vt 0.271039 0.170272
vt -0.248032 0.085284
vt 0.271039 0.076061
vt 0.271039 0.214182
vt 0.271039 0.258092
vt -0.248032 0.343080
vt 0.271039 0.352302
vt 0.271039 0.264337
vt 0.271039 0.155220
vt 0.271039 0.070778
vt 0.428872 0.271039
vt 0.425136 -0.248032
vt 0.409310 0.271039
vt 0.271039 0.356941
vt -0.248032 0.365711
vt 0.271039 0.265801
vt 0.428872 0.484865
vt 0.409310 0.474024
vt -0.080164 0.714182
vt 0.271039 0.427458
vt 0.410473 0.271039
vt 0.425136 0.751968
vt 0.428597 0.271039
vt 0.271039 0.005443
vt -0.728961 0.422921
vt 0.271039 0.273143
vt -0.728961 0.214182
vt 0.271039 0.214182
vt 1.271039 0.969004
vt 1.271039 0.170272
vt 0.751968 0.502405
vt 1.271039 1.076061
vt 0.271039 1.076739
vt 1.271039 1.714182
vt 0.919836 0.714182
vt 0.919836 1.714182
vt 1.371464 1.214182
vt 1.372553 1.170272
vt 1.478808 1.214182
vt 1.919836 1.714182
vt 1.476878 1.162562
vt 1.379402 1.076061
vt 1.391731 1.007165
vt 1.470363 1.071423
vt 1.457315 1.000905
vt 1.403821 0.969004
vt 1.449139 0.969003
vt -0.728961 1.714182
vt 0.919836 1.714182
vt 0.478808 1.214182
vt 0.476603 1.155220
vt 0.372707 1.164026
vt 0.371464 1.214182
vt 0.379054 1.076739
vt 0.470567 1.070778
vt 0.458478 1.005443
vt 0.392005 1.004361
vt 0.403207 0.969004
vt 0.449139 0.969003
vt 0.439799 0.952254
vt 1.919836 -0.728961
vt -0.080164 -0.728961
vt 0.919836 0.714182
vt 1.371464 1.214182
vt 1.373669 1.273143
vt 1.477565 1.264337
vt 1.478808 1.214182
vt 1.471218 1.351624
vt 1.379705 1.357585
vt 1.391793 1.422921
vt 1.458267 1.424003
vt 1.447065 1.459360
vt 1.401133 1.459360
vt 1.410473 1.476109
vt 0.271039 0.474024
vt -0.728961 0.476109
vt 0.271039 0.952254
vt 0.271039 0.969003
vt 1.271039 0.258092
vt 0.919836 0.714182
vt 0.478808 0.214182
vt 0.477719 0.258092
vt 0.470870 0.352302
vt 0.373394 0.265801
vt 0.371464 0.214182
vt 0.379909 0.356941
vt 0.458541 0.421199
vt 0.446451 0.459360
vt 0.392956 0.427458
vt 0.401133 0.459360
vt -0.728961 0.273143
vn -0.3539 0.8528 -0.3839
vn 0.7231 0.6655 -0.1852
vn 0.7231 0.6655 0.1852
vn -0.3539 0.8528 0.3839
vn 0.9877 0.0959 -0.1233
vn 0.9995 0.0331 0.0000
vn -0.9685 -0.2314 0.0918
vn -0.7231 -0.6655 0.1852
vn -0.8964 -0.3792 0.2295
vn 0.9626 -0.2378 -0.1299
vn -0.9901 0.0945 0.1034
vn 0.9685 0.2314 0.0918
vn 0.9685 0.2314 -0.0918
vn 0.8964 0.3792 -0.2295
vn -0.9626 0.2378 0.1299
vn -0.9461 0.3238 0.0000
vn -1.0000 0.0000 0.0000
vn -0.0000 0.0000 -1.0000
vn 1.0000 0.0000 0.0000
vn 0.0000 0.0000 1.0000
vn 0.0000 -1.0000 0.0000
vn 0.0000 1.0000 0.0000
vn 0.8964 0.3792 0.2295
vn -0.9685 -0.2314 -0.0918
vn -0.8964 -0.3792 -0.2295
vn -0.7231 -0.6655 -0.1852
vn 0.8021 -0.5972 0.0000
vn -0.8021 0.5972 0.0000
vn -0.9988 0.0499 0.0000
vn 0.9877 0.0959 0.1233
vn -0.9995 -0.0331 0.0000
vn -0.9877 -0.0959 0.1233
vn -0.9877 -0.0959 -0.1233
vn -0.9901 0.0945 -0.1034
vn 0.3539 -0.8528 0.3839
vn 0.9901 -0.0945 0.1034
vn 0.9626 -0.2378 0.1299
vn 0.3539 -0.8528 -0.3839
vn -0.9626 0.2378 -0.1299
vn 0.9461 -0.3238 -0.0000
vn 0.9901 -0.0945 -0.1034
vn 0.9988 -0.0499 0.0000
vn -0.7231 -0.6655 0.1851
s off
f 1/1/1 20/2/1 29/3/1
f 6/4/2 20/5/2 1/6/2
f 44/7/3 6/4/3 1/6/3
f 1/1/4 32/8/4 44/9/4
f 2/10/5 31/11/5 30/12/5
f 53/13/6 2/10/6 51/14/6
f 3/15/7 60/16/7 57/17/7
f 8/18/8 43/19/8 45/20/8
f 8/18/9 45/20/9 60/16/9
f 7/21/10 28/22/10 24/23/10
f 5/24/11 50/25/11 56/26/11
f 59/27/12 2/28/12 6/4/12
f 2/28/13 41/29/13 6/4/13
f 6/4/14 41/29/14 21/30/14
f 5/24/15 56/26/15 35/31/15
f 34/32/16 5/24/16 33/33/16
f 10/34/17 11/35/17 9/36/17
f 44/37/18 32/38/18 15/39/18
f 16/40/19 13/41/19 15/42/19
f 13/43/20 20/44/20 9/45/20
f 15/46/21 9/47/21 11/48/21
f 12/49/22 14/50/22 16/51/22
f 59/52/23 6/53/23 46/54/23
f 17/55/24 3/15/24 26/56/24
f 19/57/20 14/58/20 10/59/20
f 18/60/25 8/18/25 17/55/25
f 19/61/26 8/18/26 18/60/26
f 4/62/27 38/63/27 37/64/27
f 33/65/28 32/66/28 1/6/28
f 47/67/29 50/25/29 5/24/29
f 54/68/30 2/69/30 58/70/30
f 3/15/31 47/67/31 49/71/31
f 48/72/32 3/73/32 57/74/32
f 26/56/33 3/15/33 42/75/33
f 23/76/34 5/24/34 22/77/34
f 43/78/35 4/79/35 39/80/35
f 55/81/36 7/82/36 52/83/36
f 43/84/18 39/85/18 12/86/18
f 36/87/37 7/82/37 55/81/37
f 40/88/38 4/89/38 19/90/38
f 22/77/39 5/24/39 27/91/39
f 38/63/40 28/92/40 7/82/40
f 25/93/41 7/21/41 24/23/41
f 7/82/42 53/94/42 51/95/42
f 6/4/2 21/30/2 20/5/2
f 44/7/3 46/96/3 6/4/3
f 31/11/6 2/10/6 53/13/6
f 2/10/6 54/97/6 51/14/6
f 3/15/7 8/18/7 60/16/7
f 8/18/43 4/98/43 43/19/43
f 59/27/12 58/99/12 2/28/12
f 2/28/13 30/100/13 41/29/13
f 27/91/16 5/24/16 34/32/16
f 5/24/16 35/31/16 33/33/16
f 10/34/17 12/101/17 11/35/17
f 11/102/18 12/103/18 51/104/18
f 11/102/18 51/104/18 54/105/18
f 47/106/18 16/107/18 15/39/18
f 50/108/18 47/106/18 15/39/18
f 11/102/18 54/105/18 58/109/18
f 11/102/18 58/109/18 59/110/18
f 56/111/18 50/108/18 15/39/18
f 35/112/18 56/111/18 15/39/18
f 11/102/18 59/110/18 46/113/18
f 11/102/18 46/113/18 44/37/18
f 33/114/18 35/112/18 15/39/18
f 32/38/18 33/114/18 15/39/18
f 15/39/18 11/102/18 44/37/18
f 16/40/19 14/115/19 13/41/19
f 13/43/20 14/116/20 49/117/20
f 13/43/20 49/117/20 23/118/20
f 31/119/20 53/120/20 9/45/20
f 30/121/20 31/119/20 9/45/20
f 13/43/20 23/118/20 22/122/20
f 13/43/20 22/122/20 27/123/20
f 41/124/20 30/121/20 9/45/20
f 21/125/20 41/124/20 9/45/20
f 13/43/20 27/123/20 34/126/20
f 13/43/20 34/126/20 29/127/20
f 20/44/20 21/125/20 9/45/20
f 13/43/20 29/127/20 20/44/20
f 15/46/21 13/128/21 9/47/21
f 12/49/22 10/129/22 14/50/22
f 17/55/24 8/18/24 3/15/24
f 10/59/20 9/130/20 53/131/20
f 10/59/20 53/131/20 25/132/20
f 42/133/20 49/134/20 14/58/20
f 26/135/20 42/133/20 14/58/20
f 10/59/20 25/132/20 24/136/20
f 10/59/20 24/136/20 28/137/20
f 17/138/20 26/135/20 14/58/20
f 18/139/20 17/138/20 14/58/20
f 10/59/20 28/137/20 38/140/20
f 10/59/20 38/140/20 40/141/20
f 19/57/20 18/139/20 14/58/20
f 10/59/20 40/141/20 19/57/20
f 19/61/26 4/98/26 8/18/26
f 37/64/27 39/142/27 4/62/27
f 4/62/27 40/143/27 38/63/27
f 29/144/28 34/145/28 1/6/28
f 34/145/28 33/65/28 1/6/28
f 23/76/29 49/71/29 5/24/29
f 49/71/29 47/67/29 5/24/29
f 49/71/31 42/75/31 3/15/31
f 3/15/31 48/146/31 47/67/31
f 16/147/18 47/148/18 48/149/18
f 16/147/18 48/149/18 57/150/18
f 52/151/18 51/152/18 12/86/18
f 55/153/18 52/151/18 12/86/18
f 16/147/18 57/150/18 60/154/18
f 16/147/18 60/154/18 45/155/18
f 36/156/18 55/153/18 12/86/18
f 37/157/18 36/156/18 12/86/18
f 16/147/18 45/155/18 43/84/18
f 39/85/18 37/157/18 12/86/18
f 12/86/18 16/147/18 43/84/18
f 36/87/40 37/64/40 7/82/40
f 37/64/40 38/63/40 7/82/40
f 51/95/42 52/83/42 7/82/42
f 7/82/42 25/158/42 53/94/42
