# Blender v2.79 (sub 0) OBJ File: 'Level1_well_done.blend'
# www.blender.org
o Sphere.001_Sphere
v 0.156045 0.980785 -0.137950
v 0.288694 0.923880 -0.270598
v 0.410943 0.831470 -0.392847
v 0.518096 0.707107 -0.500000
v 0.606034 0.555570 -0.587938
v 0.671377 0.382683 -0.653281
v 0.711616 0.195090 -0.693520
v 0.725203 0.000000 -0.707107
v 0.213186 0.980785 0.000000
v 0.400779 0.923880 0.000000
v 0.573666 0.831470 0.000000
v 0.725203 0.707107 0.000000
v 0.849565 0.555570 0.000000
v 0.941975 0.382683 0.000000
v 0.998881 0.195090 0.000000
v 1.018096 0.000000 0.000000
v 0.156045 0.980785 0.137950
v 0.288694 0.923880 0.270599
v 0.410943 0.831470 0.392848
v 0.518096 0.707107 0.500001
v 0.606034 0.555570 0.587938
v 0.671377 0.382683 0.653282
v 0.711616 0.195090 0.693520
v 0.725203 0.000000 0.707107
v 0.018096 0.980785 0.195091
v 0.018095 0.923880 0.382684
v 0.018096 0.831470 0.555571
v 0.018095 0.707107 0.707107
v 0.018095 0.555570 0.831470
v 0.018095 0.382683 0.923880
v 0.018095 0.195090 0.980786
v 0.018095 0.000000 1.000001
v 0.018095 1.000000 0.000001
v -0.119854 0.980785 0.137950
v -0.252503 0.923880 0.270599
v -0.374752 0.831470 0.392848
v -0.481905 0.707107 0.500001
v -0.569843 0.555570 0.587938
v -0.635186 0.382683 0.653282
v -0.675425 0.195090 0.693520
v -0.689012 0.000000 0.707107
v -0.176995 0.980785 0.000000
v -0.364588 0.923880 0.000000
v -0.537475 0.831470 0.000000
v -0.689012 0.707107 0.000000
v -0.813374 0.555570 0.000000
v -0.905784 0.382683 0.000000
v -0.962690 0.195090 0.000000
v -0.981905 0.000000 0.000000
v -0.119854 0.980785 -0.137950
v -0.252503 0.923880 -0.270598
v -0.374752 0.831470 -0.392847
v -0.481905 0.707107 -0.500000
v -0.569843 0.555570 -0.587938
v -0.635186 0.382683 -0.653281
v -0.675425 0.195090 -0.693520
v -0.689012 0.000000 -0.707107
v 0.018096 0.980785 -0.195090
v 0.018095 0.923880 -0.382683
v 0.018095 0.831470 -0.555570
v 0.018095 0.707107 -0.707107
v 0.018095 0.555570 -0.831470
v 0.018095 0.382683 -0.923880
v 0.018095 0.195090 -0.980785
v 0.018095 0.000000 -1.000000
v 0.722284 -0.041913 -0.704188
v 0.018095 -0.041913 -0.995872
v 1.013968 -0.041913 0.000000
v 0.722284 -0.041913 0.704188
v -0.686093 -0.041913 -0.704188
v -0.977777 -0.041913 0.000000
v -0.686093 -0.041913 0.704188
v 0.018095 -0.041913 0.995873
vt 0.509048 0.691342
vt 0.855808 0.597545
vt 0.509048 0.597545
vt 0.509048 0.500000
vt 0.862601 0.500000
vt 0.509048 0.597545
vt 0.509048 0.500000
vt 0.578023 0.568975
vt 0.509048 0.691342
vt 0.644347 0.635299
vt 0.705472 0.696424
vt 0.509048 0.777785
vt 0.759048 0.750000
vt 0.509048 0.853553
vt 0.509048 0.777785
vt 0.759048 0.853553
vt 0.803017 0.777785
vt 0.835689 0.691342
vt 0.750000 0.853553
vt 0.500000 0.777785
vt 0.793969 0.777785
vt 0.826641 0.691342
vt 0.500000 0.691342
vt 0.500000 0.597545
vt 0.846760 0.597545
vt 0.853553 0.500000
vt 0.500000 0.500000
vt 0.606593 0.500000
vt 0.700390 0.500000
vt 0.786833 0.500000
vt 0.862601 0.500000
vt 0.644347 0.364701
vt 0.705472 0.303576
vt 0.759048 0.250000
vt 0.500000 0.853553
vt 0.206031 0.777785
vt 0.173359 0.691342
vt 0.153240 0.597545
vt 0.146446 0.500000
vt 0.578023 0.431025
vt 0.803017 0.777785
vt 0.509048 0.691342
vt 0.835689 0.691342
vt 0.509048 0.597545
vt 0.855808 0.597545
vt 0.509048 0.500000
vt 0.862601 0.500000
vt 0.509048 0.402455
vt 0.509048 0.308658
vt 0.509048 0.222215
vt 0.509048 0.146446
vt 0.759048 0.853553
vt 0.509048 0.777785
vt 0.312624 0.303576
vt 0.259048 0.250000
vt 0.509048 0.853553
vt 0.215079 0.777785
vt 0.182407 0.691342
vt 0.162288 0.597545
vt 0.155494 0.500000
vt 0.440073 0.431025
vt 0.373749 0.364701
vt 0.153240 0.597545
vt 0.500000 0.691342
vt 0.500000 0.597545
vt 0.500000 0.500000
vt 0.146446 0.500000
vt 0.411502 0.500000
vt 0.317706 0.500000
vt 0.231262 0.500000
vt 0.155494 0.500000
vt 0.250000 0.853553
vt 0.500000 0.777785
vt 0.206031 0.777785
vt 0.173359 0.691342
vt 0.312624 0.696424
vt 0.259048 0.750000
vt 0.500000 0.853553
vt 0.793969 0.777785
vt 0.826641 0.691342
vt 0.846760 0.597545
vt 0.853553 0.500000
vt 0.440073 0.568975
vt 0.373749 0.635299
vt 0.182407 0.691342
vt 0.162288 0.597545
vt 0.155494 0.500000
vt 0.215079 0.777785
vt 0.509048 0.479044
vt 0.861142 0.479044
vt 0.852094 0.479044
vt 0.500000 0.479044
vt 0.147906 0.479044
vt 0.861142 0.479044
vt 0.509048 0.479044
vt 0.509048 0.997936
vt 1.006984 0.500000
vt 0.509048 0.002064
vt 0.500000 0.479044
vt 0.852094 0.479044
vt 0.156954 0.479044
vt 0.156954 0.479044
vt 0.250000 0.853553
vt 0.259048 0.853553
vt 0.750000 0.853553
vt 0.259048 0.853553
vt 0.156954 0.147906
vt 0.011112 0.500000
vt 0.156954 0.852094
vt 0.861142 0.852094
vt 0.861142 0.147906
vt 0.147906 0.479044
vn 0.3685 0.2699 -0.8896
vn 0.3811 0.0906 -0.9201
vn 0.0406 0.9944 -0.0979
vn 0.1194 0.9501 -0.2882
vn 0.1916 0.8656 -0.4627
vn 0.2541 0.7476 -0.6136
vn 0.3049 0.6042 -0.7362
vn 0.3431 0.4428 -0.8284
vn 0.7362 0.6042 -0.3049
vn 0.8284 0.4428 -0.3431
vn 0.8896 0.2699 -0.3685
vn 0.9201 0.0906 -0.3811
vn 0.0979 0.9944 -0.0406
vn 0.2882 0.9501 -0.1194
vn 0.4627 0.8656 -0.1916
vn 0.6136 0.7476 -0.2541
vn 0.2882 0.9501 0.1194
vn 0.4627 0.8656 0.1916
vn 0.6136 0.7476 0.2541
vn 0.7362 0.6042 0.3049
vn 0.8284 0.4428 0.3431
vn 0.8896 0.2699 0.3685
vn 0.9201 0.0906 0.3811
vn 0.0979 0.9944 0.0406
vn 0.3431 0.4428 0.8284
vn 0.3685 0.2699 0.8896
vn 0.3811 0.0906 0.9201
vn 0.0406 0.9944 0.0979
vn 0.1194 0.9501 0.2882
vn 0.1916 0.8656 0.4627
vn 0.2541 0.7476 0.6136
vn 0.3049 0.6042 0.7362
vn -0.1916 0.8656 0.4627
vn -0.2541 0.7476 0.6136
vn -0.3049 0.6042 0.7362
vn -0.3431 0.4428 0.8284
vn -0.3685 0.2699 0.8896
vn -0.3811 0.0906 0.9201
vn -0.0406 0.9944 0.0979
vn -0.1194 0.9501 0.2882
vn -0.8896 0.2699 0.3685
vn -0.9201 0.0906 0.3811
vn -0.0979 0.9944 0.0406
vn -0.2882 0.9501 0.1194
vn -0.4627 0.8656 0.1916
vn -0.6136 0.7476 0.2541
vn -0.7362 0.6042 0.3049
vn -0.8284 0.4428 0.3431
vn -0.4627 0.8656 -0.1916
vn -0.6136 0.7476 -0.2541
vn -0.7362 0.6042 -0.3049
vn -0.8284 0.4428 -0.3431
vn -0.8896 0.2699 -0.3685
vn -0.9201 0.0906 -0.3811
vn -0.0979 0.9944 -0.0406
vn -0.2882 0.9501 -0.1194
vn -0.3685 0.2699 -0.8896
vn -0.3811 0.0906 -0.9201
vn -0.0406 0.9944 -0.0979
vn -0.1194 0.9501 -0.2882
vn -0.1916 0.8656 -0.4627
vn -0.2541 0.7476 -0.6136
vn -0.3049 0.6042 -0.7362
vn -0.3431 0.4428 -0.8284
vn 0.3811 -0.0906 -0.9201
vn 0.9201 -0.0906 -0.3811
vn 0.9201 -0.0906 0.3811
vn 0.3811 -0.0906 0.9201
vn 0.0000 -1.0000 0.0000
vn -0.9201 -0.0906 -0.3811
vn -0.9201 -0.0906 0.3811
vn -0.3811 -0.0906 -0.9201
vn -0.3811 -0.0906 0.9201
s off
f 63/1/1 7/2/1 64/3/1
f 65/4/2 7/2/2 8/5/2
f 58/6/3 33/7/3 1/8/3
f 59/9/4 1/8/4 2/10/4
f 59/9/5 3/11/5 60/12/5
f 60/12/6 4/13/6 61/14/6
f 62/15/7 4/16/7 5/17/7
f 62/15/8 6/18/8 63/1/8
f 4/19/9 13/20/9 5/21/9
f 6/22/10 13/20/10 14/23/10
f 6/22/11 15/24/11 7/25/11
f 8/26/12 15/24/12 16/27/12
f 1/8/13 33/7/13 9/28/13
f 1/8/14 10/29/14 2/10/14
f 2/10/15 11/30/15 3/11/15
f 4/13/16 11/30/16 12/31/16
f 9/28/17 18/32/17 10/29/17
f 10/29/18 19/33/18 11/30/18
f 11/30/19 20/34/19 12/31/19
f 12/35/20 21/36/20 13/20/20
f 13/20/21 22/37/21 14/23/21
f 14/23/22 23/38/22 15/24/22
f 15/24/23 24/39/23 16/27/23
f 9/28/24 33/7/24 17/40/24
f 21/41/25 30/42/25 22/43/25
f 22/43/26 31/44/26 23/45/26
f 23/45/27 32/46/27 24/47/27
f 17/40/28 33/7/28 25/48/28
f 18/32/29 25/48/29 26/49/29
f 18/32/30 27/50/30 19/33/30
f 20/34/31 27/50/31 28/51/31
f 20/52/32 29/53/32 21/41/32
f 26/49/33 36/54/33 27/50/33
f 28/51/34 36/54/34 37/55/34
f 28/56/35 38/57/35 29/53/35
f 29/53/36 39/58/36 30/42/36
f 30/42/37 40/59/37 31/44/37
f 31/44/38 41/60/38 32/46/38
f 25/48/39 33/7/39 34/61/39
f 25/48/40 35/62/40 26/49/40
f 40/63/41 47/64/41 48/65/41
f 40/63/42 49/66/42 41/67/42
f 34/61/43 33/7/43 42/68/43
f 34/61/44 43/69/44 35/62/44
f 35/62/45 44/70/45 36/54/45
f 37/55/46 44/70/46 45/71/46
f 37/72/47 46/73/47 38/74/47
f 39/75/48 46/73/48 47/64/48
f 43/69/49 52/76/49 44/70/49
f 45/71/50 52/76/50 53/77/50
f 45/78/51 54/79/51 46/73/51
f 46/73/52 55/80/52 47/64/52
f 47/64/53 56/81/53 48/65/53
f 49/66/54 56/81/54 57/82/54
f 42/68/55 33/7/55 50/83/55
f 43/69/56 50/83/56 51/84/56
f 55/85/57 64/3/57 56/86/57
f 56/86/58 65/4/58 57/87/58
f 50/83/59 33/7/59 58/6/59
f 50/83/60 59/9/60 51/84/60
f 51/84/61 60/12/61 52/76/61
f 52/76/62 61/14/62 53/77/62
f 54/88/63 61/14/63 62/15/63
f 54/88/64 63/1/64 55/85/64
f 67/89/65 8/5/65 66/90/65
f 66/91/66 16/27/66 68/92/66
f 68/92/67 24/39/67 69/93/67
f 69/94/68 32/46/68 73/95/68
f 67/96/69 68/97/69 73/98/69
f 71/99/70 57/82/70 70/100/70
f 71/99/71 41/67/71 49/66/71
f 70/101/72 65/4/72 67/89/72
f 73/95/73 41/60/73 72/102/73
f 63/1/1 6/18/1 7/2/1
f 65/4/2 64/3/2 7/2/2
f 59/9/4 58/6/4 1/8/4
f 59/9/5 2/10/5 3/11/5
f 60/12/6 3/11/6 4/13/6
f 62/15/7 61/14/7 4/16/7
f 62/15/8 5/17/8 6/18/8
f 4/19/9 12/35/9 13/20/9
f 6/22/10 5/21/10 13/20/10
f 6/22/11 14/23/11 15/24/11
f 8/26/12 7/25/12 15/24/12
f 1/8/14 9/28/14 10/29/14
f 2/10/15 10/29/15 11/30/15
f 4/13/16 3/11/16 11/30/16
f 9/28/17 17/40/17 18/32/17
f 10/29/18 18/32/18 19/33/18
f 11/30/19 19/33/19 20/34/19
f 12/35/20 20/103/20 21/36/20
f 13/20/21 21/36/21 22/37/21
f 14/23/22 22/37/22 23/38/22
f 15/24/23 23/38/23 24/39/23
f 21/41/25 29/53/25 30/42/25
f 22/43/26 30/42/26 31/44/26
f 23/45/27 31/44/27 32/46/27
f 18/32/29 17/40/29 25/48/29
f 18/32/30 26/49/30 27/50/30
f 20/34/31 19/33/31 27/50/31
f 20/52/32 28/56/32 29/53/32
f 26/49/33 35/62/33 36/54/33
f 28/51/34 27/50/34 36/54/34
f 28/56/35 37/104/35 38/57/35
f 29/53/36 38/57/36 39/58/36
f 30/42/37 39/58/37 40/59/37
f 31/44/38 40/59/38 41/60/38
f 25/48/40 34/61/40 35/62/40
f 40/63/41 39/75/41 47/64/41
f 40/63/42 48/65/42 49/66/42
f 34/61/44 42/68/44 43/69/44
f 35/62/45 43/69/45 44/70/45
f 37/55/46 36/54/46 44/70/46
f 37/72/47 45/78/47 46/73/47
f 39/75/48 38/74/48 46/73/48
f 43/69/49 51/84/49 52/76/49
f 45/71/50 44/70/50 52/76/50
f 45/78/51 53/105/51 54/79/51
f 46/73/52 54/79/52 55/80/52
f 47/64/53 55/80/53 56/81/53
f 49/66/54 48/65/54 56/81/54
f 43/69/56 42/68/56 50/83/56
f 55/85/57 63/1/57 64/3/57
f 56/86/58 64/3/58 65/4/58
f 50/83/60 58/6/60 59/9/60
f 51/84/61 59/9/61 60/12/61
f 52/76/62 60/12/62 61/14/62
f 54/88/63 53/106/63 61/14/63
f 54/88/64 62/15/64 63/1/64
f 67/89/65 65/4/65 8/5/65
f 66/91/66 8/26/66 16/27/66
f 68/92/67 16/27/67 24/39/67
f 69/94/68 24/47/68 32/46/68
f 73/98/69 72/107/69 67/96/69
f 72/107/69 71/108/69 67/96/69
f 71/108/69 70/109/69 67/96/69
f 67/96/69 66/110/69 68/97/69
f 68/97/69 69/111/69 73/98/69
f 71/99/70 49/66/70 57/82/70
f 71/99/71 72/112/71 41/67/71
f 70/101/72 57/87/72 65/4/72
f 73/95/73 32/46/73 41/60/73
