# Blender v2.79 (sub 0) OBJ File: 'Level1_well_done.blend'
# www.blender.org
o Sphere_Sphere.001
v -0.000488 0.226986 -0.387119
v 0.580890 0.226986 -0.070322
v 0.358823 0.226986 0.442266
v -0.000488 0.435540 0.071354
v -0.359799 0.226986 0.442266
v -0.581866 0.226986 -0.070322
v 0.874819 -0.219660 -0.141950
v -0.000488 -0.219660 -0.618910
v 0.540481 -0.219660 0.629789
v -0.541457 -0.219660 0.629789
v -0.875794 -0.219660 -0.141950
vt 0.499756 0.758216
vt 0.499756 0.464323
vt 0.779265 0.555141
vt 0.672502 0.226559
vt 0.327010 0.226559
vt 0.220247 0.555141
vt 0.078936 0.371770
vt 0.499756 0.576278
vt 0.499756 0.371770
vt 0.601056 0.371770
vt 0.226559 0.576278
vt 0.555141 0.576278
vt 0.601056 0.371770
vt 0.226559 0.576278
vt 0.106352 0.371770
vt 0.759837 0.371770
vt 0.327010 0.576278
vt 0.239675 0.371770
vt 0.920576 0.371770
vt 0.779265 0.576278
vt 0.239675 0.106352
vt 0.078936 0.601056
vt 0.499756 0.906800
vt 0.220247 0.576278
vt 0.106352 0.371770
vt 0.555141 0.576278
vt 0.672502 0.576278
vt 0.920576 0.601056
vt 0.759837 0.106352
vn 0.2201 0.8879 -0.4039
vn 0.3675 0.9163 0.1592
vn 0.0000 0.8717 0.4901
vn -0.3675 0.9163 0.1592
vn -0.2201 0.8879 -0.4039
vn -0.4354 0.4147 -0.7990
vn -0.8074 0.4752 0.3498
vn 0.8074 0.4752 0.3498
vn 0.0000 0.3871 0.9220
vn 0.4354 0.4147 -0.7990
vn 0.0000 -1.0000 0.0000
s off
f 1/1/1 4/2/1 2/3/1
f 2/3/2 4/2/2 3/4/2
f 3/4/3 4/2/3 5/5/3
f 5/5/4 4/2/4 6/6/4
f 6/6/5 4/2/5 1/1/5
f 11/7/6 1/8/6 8/9/6
f 11/10/7 5/11/7 6/12/7
f 7/13/8 3/14/8 9/15/8
f 9/16/9 5/17/9 10/18/9
f 7/19/10 1/8/10 2/20/10
f 10/21/11 11/22/11 8/23/11
f 11/7/6 6/24/6 1/8/6
f 11/10/7 10/25/7 5/11/7
f 7/13/8 2/26/8 3/14/8
f 9/16/9 3/27/9 5/17/9
f 7/19/10 8/9/10 1/8/10
f 8/23/11 7/28/11 9/29/11
f 9/29/11 10/21/11 8/23/11
