# Blender v2.79 (sub 0) OBJ File: 'Level1_well_done.blend'
# www.blender.org
o Cylinder.005_Cylinder
v -4.000000 0.433883 0.900969
v 4.000000 0.433884 0.900969
v -4.000000 0.974928 0.222521
v 4.000000 0.974928 0.222521
v -4.000000 0.781831 -0.623490
v 4.000000 0.781832 -0.623490
v -4.000000 0.015091 -0.992732
v 4.000000 0.015091 -0.992732
v 4.000000 0.015091 0.900969
v -4.000000 0.015091 0.900969
vt 0.049516 1.000000
vt 0.388739 0.000000
vt 0.049516 0.000000
vt 0.388739 1.000000
vt 0.811745 0.000000
vt 0.109084 1.000000
vt 0.492454 0.000000
vt 0.109084 0.000000
vt 0.012536 0.388739
vt 0.492454 0.049516
vt 0.109084 0.811745
vt 0.492454 1.000000
vt 0.283058 0.000000
vt 0.492454 0.000000
vt 0.492454 0.049516
vt 0.012536 0.388739
vt 0.109084 0.811745
vt 0.049516 0.000000
vt 0.996366 -1.000000
vt 0.996366 0.000000
vt 0.811745 1.000000
vt 0.492454 1.000000
vt 0.283058 0.049516
vt 0.492454 0.996366
vt 0.283058 1.000000
vt 0.492454 0.996366
vt 0.283058 0.049516
vt 0.049516 -1.000000
vn -0.0000 0.7818 0.6235
vn -0.0000 0.9749 -0.2225
vn -0.0000 0.4339 -0.9010
vn 1.0000 0.0000 0.0000
vn 0.0000 0.0000 1.0000
vn -1.0000 0.0000 0.0000
vn -0.0000 -1.0000 0.0000
s off
f 2/1/1 3/2/1 1/3/1
f 4/4/2 5/5/2 3/2/2
f 6/6/3 7/7/3 5/8/3
f 4/9/4 9/10/4 6/11/4
f 9/12/5 1/13/5 10/14/5
f 10/15/6 3/16/6 5/17/6
f 9/18/7 7/19/7 8/20/7
f 2/1/1 4/4/1 3/2/1
f 4/4/2 6/21/2 5/5/2
f 6/6/3 8/22/3 7/7/3
f 2/23/4 9/10/4 4/9/4
f 9/10/4 8/24/4 6/11/4
f 9/12/5 2/25/5 1/13/5
f 5/17/6 7/26/6 10/15/6
f 10/15/6 1/27/6 3/16/6
f 9/18/7 10/28/7 7/19/7
