# Blender v2.79 (sub 0) OBJ File: 'Level1_well_done.blend'
# www.blender.org
o Cube.008_Cube.001
v -1.253306 -0.071853 3.646605
v -1.253306 0.069374 3.646605
v -1.253306 -0.071853 -3.835135
v -1.253306 0.069374 -3.835135
v 1.236862 -0.071853 3.646605
v 1.236862 0.069374 3.646605
v 1.236862 -0.071853 -3.835135
v 1.236862 0.069374 -3.835135
vt 0.047133 1.999380
vt 1.047133 0.999380
vt 0.047133 0.999380
vt 0.995889 1.999380
vt 1.995889 0.999380
vt 0.995889 0.999380
vt 0.047133 1.999380
vt -0.952867 0.999380
vt 0.047133 0.999380
vt 0.995889 1.999380
vt -0.004111 0.999380
vt 0.995889 0.999380
vt 1.995889 0.047133
vt 0.995889 -0.952867
vt 0.995889 0.047133
vt -0.004111 0.047133
vt 0.995889 -0.952867
vt 0.995889 0.047133
vt 1.047133 1.999380
vt 1.995889 1.999380
vt -0.952867 1.999380
vt -0.004111 1.999380
vt 1.995889 -0.952867
vt -0.004111 -0.952867
vn -1.0000 0.0000 0.0000
vn 0.0000 0.0000 -1.0000
vn 1.0000 0.0000 0.0000
vn 0.0000 0.0000 1.0000
vn 0.0000 -1.0000 0.0000
vn 0.0000 1.0000 0.0000
s off
f 2/1/1 3/2/1 1/3/1
f 4/4/2 7/5/2 3/6/2
f 8/7/3 5/8/3 7/9/3
f 6/10/4 1/11/4 5/12/4
f 7/13/5 1/14/5 3/15/5
f 4/16/6 6/17/6 8/18/6
f 2/1/1 4/19/1 3/2/1
f 4/4/2 8/20/2 7/5/2
f 8/7/3 6/21/3 5/8/3
f 6/10/4 2/22/4 1/11/4
f 7/13/5 5/23/5 1/14/5
f 4/16/6 2/24/6 6/17/6
