# Blender v2.79 (sub 0) OBJ File: 'Level1_well_done.blend'
# www.blender.org
v -0.076636 -0.026962 -0.009815
v -0.002742 -0.026962 -0.009815
v -0.076636 2.557435 0.901960
v -0.076636 1.645660 -0.009815
v -0.002742 1.645660 -0.009815
v -0.002742 2.557435 0.901959
v -0.076636 -0.026962 1.260399
v -0.076636 2.557435 1.260399
v -0.002742 2.557435 1.260399
v -0.002742 -0.026962 1.260399
vt 0.980155 1.279818
vt 1.980155 0.632618
vt 0.980155 0.632618
vt 0.049020 1.632618
vt -0.130200 1.632618
vt -0.130200 0.632618
vt 1.980155 0.504908
vt 0.980155 -0.130200
vt 0.980155 0.504908
vt -0.019845 0.049020
vt 0.980155 -0.130200
vt 0.980155 0.049020
vt 0.980155 0.504908
vt 0.980155 -0.367382
vt 1.980155 0.632618
vt 0.980155 0.632618
vt 1.504908 1.279818
vt 0.869800 0.632618
vt 1.049020 1.632618
vt 1.980155 1.279818
vt 0.504908 0.632618
vt 0.504908 1.279818
vt 1.980155 -0.130200
vt -0.019845 -0.130200
vt -0.019845 0.504908
vt 1.980155 -0.367382
vt 1.504908 0.632618
vt 0.869800 1.632618
vn 0.0000 0.0000 -1.0000
vn 1.0000 0.0000 0.0000
vn 0.0000 -1.0000 0.0000
vn 0.0000 1.0000 0.0000
vn -0.0000 0.7071 -0.7071
vn 0.0000 0.0000 1.0000
vn -1.0000 -0.0000 0.0000
s off
f 4/1/1 2/2/1 1/3/1
f 6/4/2 9/5/2 10/6/2
f 2/7/3 7/8/3 1/9/3
f 3/10/4 9/11/4 6/12/4
f 5/13/5 3/10/5 6/12/5
f 7/14/6 9/15/6 8/16/6
f 4/17/7 7/18/7 3/19/7
f 4/1/1 5/20/1 2/2/1
f 10/6/2 2/21/2 5/22/2
f 5/22/2 6/4/2 10/6/2
f 2/7/3 10/23/3 7/8/3
f 3/10/4 8/24/4 9/11/4
f 5/13/5 4/25/5 3/10/5
f 7/14/6 10/26/6 9/15/6
f 1/27/7 7/18/7 4/17/7
f 7/18/7 8/28/7 3/19/7
