# Blender v2.79 (sub 0) OBJ File: 'Level1_well_done.blend'
# www.blender.org
mtllib Level1_doors_left.mtl
o Cube.003_Cube.015
v -0.090240 1.791675 -0.719022
v -0.031240 1.791675 -0.719022
v -0.090239 -0.080325 0.000978
v -0.031239 -0.080325 0.000978
v -0.090239 -0.080325 -0.719022
v -0.031239 -0.080325 -0.719022
v -0.031240 1.112428 0.000978
v -0.055803 1.112428 0.000978
v -0.090240 1.112428 0.000978
v -0.031240 1.445912 -0.122443
v -0.056569 1.445912 -0.122443
v -0.090240 1.791675 -0.386587
v -0.031240 1.791675 -0.386587
v -0.090240 1.445912 -0.122443
vn 0.0000 0.0000 -1.0000
vn 0.0000 -1.0000 0.0000
vn 0.0000 0.0000 1.0000
vn -1.0000 -0.0000 -0.0000
vn 1.0000 0.0000 -0.0000
vn -0.0000 0.6071 0.7946
vn 0.0000 0.3471 0.9378
vn 0.0000 1.0000 0.0000
usemtl None
s off
f 2//1 5//1 1//1
f 6//2 3//2 5//2
f 4//3 7//3 8//3
f 14//4 12//4 5//4
f 10//5 7//5 6//5
f 12//6 14//6 11//6
f 9//7 8//7 11//7
f 13//8 1//8 12//8
f 2//1 6//1 5//1
f 6//2 4//2 3//2
f 9//3 3//3 8//3
f 3//3 4//3 8//3
f 12//4 1//4 5//4
f 5//4 3//4 9//4
f 9//4 14//4 5//4
f 4//5 6//5 7//5
f 6//5 2//5 13//5
f 10//5 6//5 13//5
f 10//6 13//6 11//6
f 13//6 12//6 11//6
f 7//7 10//7 8//7
f 10//7 11//7 8//7
f 11//7 14//7 9//7
f 13//8 2//8 1//8
