# Blender v2.79 (sub 0) OBJ File: 'Level1_well_done.blend'
# www.blender.org
o Cube.012_Cube.007
v -10.771814 -2.448617 7.071392
v -10.771814 -2.448617 -7.071392
v 10.771814 -2.448617 7.071392
v 10.771814 -2.448617 -7.071392
v -10.982194 -2.690783 7.278360
v -10.982194 2.698603 7.278360
v -10.982194 -2.690783 -7.278360
v -10.982194 2.698603 -7.278360
v 10.982194 -2.690783 7.278360
v 10.982194 2.698603 7.278360
v 10.982194 -2.690783 -7.278360
v 10.982194 2.698603 -7.278360
v -10.771815 2.698603 7.071392
v 10.771815 2.698603 7.071392
v -10.771815 2.698603 -7.071392
v 10.771815 2.698603 -7.071392
vt 0.985782 0.046889
vt 0.014218 1.001955
vt 0.014218 0.046889
vt 0.990422 0.046889
vt 0.009578 1.001955
vt 0.009578 0.046889
vt 0.014218 0.046889
vt 0.985782 1.001955
vt 0.985782 0.046889
vt 0.009578 0.046889
vt 0.990422 1.001955
vt 0.990422 0.046889
vt 0.009578 0.014218
vt 0.990422 0.985782
vt 0.009578 0.985782
vt 0.000000 1.001955
vt 1.000000 0.001955
vt 0.000000 0.001955
vt 0.000000 1.001955
vt 1.000000 0.001955
vt 0.000000 0.001955
vt 0.000000 1.001955
vt -1.000000 0.001955
vt 0.000000 0.001955
vt 0.000000 1.001955
vt -1.000000 0.001955
vt 0.000000 0.001955
vt 1.000000 0.000000
vt 0.000000 -1.000000
vt 0.000000 0.000000
vt -0.009578 -0.985782
vt -1.000000 -1.000000
vt 0.000000 -1.000000
vt 0.009578 0.985782
vt 1.000000 1.000000
vt 0.000000 1.000000
vt 0.985782 1.001955
vt 0.990422 1.001955
vt 0.014218 1.001955
vt 0.009578 1.001955
vt 0.990422 0.014218
vt 1.000000 1.001955
vt 1.000000 1.001955
vt -1.000000 1.001955
vt -1.000000 1.001955
vt 1.000000 -1.000000
vt 0.000000 0.000000
vt -0.009578 -0.014218
vt -0.990422 -0.985782
vt 0.000000 0.000000
vt 0.009578 0.014218
vt 0.990422 0.985782
vn 1.0000 0.0000 0.0000
vn 0.0000 0.0000 1.0000
vn -1.0000 0.0000 0.0000
vn 0.0000 0.0000 -1.0000
vn 0.0000 1.0000 0.0000
vn 0.0000 -1.0000 0.0000
s off
f 2/1/1 13/2/1 1/3/1
f 4/4/2 15/5/2 2/6/2
f 3/7/3 16/8/3 4/9/3
f 1/10/4 14/11/4 3/12/4
f 1/13/5 4/14/5 2/15/5
f 6/16/3 7/17/3 5/18/3
f 8/19/4 11/20/4 7/21/4
f 12/22/1 9/23/1 11/24/1
f 10/25/2 5/26/2 9/27/2
f 11/28/6 5/29/6 7/30/6
f 14/31/5 6/32/5 10/33/5
f 15/34/5 12/35/5 8/36/5
f 2/1/1 15/37/1 13/2/1
f 4/4/2 16/38/2 15/5/2
f 3/7/3 14/39/3 16/8/3
f 1/10/4 13/40/4 14/11/4
f 1/13/5 3/41/5 4/14/5
f 6/16/3 8/42/3 7/17/3
f 8/19/4 12/43/4 11/20/4
f 12/22/1 10/44/1 9/23/1
f 10/25/2 6/45/2 5/26/2
f 11/28/6 9/46/6 5/29/6
f 10/33/5 12/47/5 16/48/5
f 14/31/5 13/49/5 6/32/5
f 10/33/5 16/48/5 14/31/5
f 8/36/5 6/50/5 13/51/5
f 15/34/5 16/52/5 12/35/5
f 8/36/5 13/51/5 15/34/5
