# Blender v2.79 (sub 0) OBJ File: 'Level1_well_done.blend'
# www.blender.org
v -3.752683 1.034509 2.995441
v -3.752683 0.614729 2.995441
v -3.136813 1.034509 3.219599
v -3.136813 0.614729 3.219599
v -2.809115 1.034509 3.787188
v -2.809115 0.614729 3.787188
v -2.922923 1.034509 4.432627
v -2.922923 0.614729 4.432627
v -3.424985 1.034509 4.853906
v -3.424985 0.614729 4.853906
v -4.080380 1.034509 4.853906
v -4.080380 0.614729 4.853906
v -4.582442 1.034509 4.432626
v -4.582442 0.614729 4.432626
v -4.696250 1.034509 3.787188
v -4.696250 0.614729 3.787188
v -4.368553 1.034509 3.219599
v -4.368553 0.614729 3.219599
vt 0.623659 1.412309
vt 0.623659 0.412309
vt 0.945053 0.412309
vt 0.906240 1.412309
vt 0.906240 0.412309
vt 0.610042 0.412309
vt 0.610042 1.412309
vt 0.273218 0.412309
vt 0.056671 1.412309
vt 0.056671 0.412309
vt -0.205331 0.412309
vt 0.794669 1.412309
vt 0.794669 0.412309
vt 0.452648 0.412309
vt 0.452648 1.412309
vt 0.190646 0.412309
vt 0.273218 1.412309
vt 0.273218 0.412309
vt 0.610042 0.412309
vt 0.623659 1.023218
vt 1.056671 0.273218
vt 0.452648 0.053371
vt 0.610042 1.412309
vt 0.906240 0.412309
vt 0.302265 1.412309
vt 0.302265 0.412309
vt 0.623659 0.023218
vt 0.302265 -0.093760
vt 0.131255 -0.389958
vt 0.131255 0.610042
vt 0.190646 0.273218
vt 1.116063 0.610042
vt 0.452648 0.053371
vt 0.794669 0.053371
vt 1.056671 0.273218
vt 0.945053 0.906240
vt 0.623659 1.023218
vt 0.945053 1.412309
vt 0.273218 1.412309
vt -0.205331 1.412309
vt 0.190646 1.412309
vt 1.116063 0.610042
vt 0.945053 0.906240
vt 0.131255 0.610042
vt 0.302265 0.906240
vt 0.190646 0.273218
vt 0.794669 0.053371
vt 0.906240 1.412309
vn 0.3420 0.0000 -0.9397
vn 0.8660 0.0000 -0.5000
vn 0.9848 0.0000 0.1736
vn 0.6428 0.0000 0.7660
vn 0.0000 0.0000 1.0000
vn -0.6428 0.0000 0.7660
vn -0.9848 0.0000 0.1736
vn 0.0000 -1.0000 0.0000
vn -0.8660 0.0000 -0.5000
vn -0.3420 0.0000 -0.9397
vn 0.0000 1.0000 0.0000
s off
f 2/1/1 1/2/1 3/3/1
f 4/4/2 3/5/2 5/6/2
f 6/7/3 5/6/3 7/8/3
f 8/9/4 7/10/4 9/11/4
f 10/12/5 9/13/5 11/14/5
f 12/15/6 11/14/6 13/16/6
f 14/17/7 13/18/7 15/19/7
f 2/20/8 8/21/8 12/22/8
f 16/23/9 15/19/9 17/24/9
f 18/25/10 17/26/10 1/2/10
f 1/27/11 17/28/11 15/29/11
f 15/30/11 13/31/11 5/32/11
f 13/31/11 11/33/11 5/32/11
f 11/33/11 9/34/11 5/32/11
f 9/34/11 7/35/11 5/32/11
f 15/30/11 5/32/11 3/36/11
f 15/30/11 3/36/11 1/37/11
f 2/1/1 3/3/1 4/38/1
f 4/4/2 5/6/2 6/7/2
f 6/7/3 7/8/3 8/39/3
f 8/9/4 9/11/4 10/40/4
f 10/12/5 11/14/5 12/15/5
f 12/15/6 13/16/6 14/41/6
f 14/17/7 15/19/7 16/23/7
f 6/42/8 8/21/8 4/43/8
f 4/43/8 8/21/8 2/20/8
f 2/20/8 16/44/8 18/45/8
f 16/44/8 2/20/8 14/46/8
f 14/46/8 2/20/8 12/22/8
f 12/22/8 8/21/8 10/47/8
f 16/23/9 17/24/9 18/48/9
f 18/25/10 1/2/10 2/1/10
