# Blender v2.79 (sub 0) OBJ File: 'Level1_well_done.blend'
# www.blender.org
o Cube.004_Cube.006
v -11.501451 -0.005745 7.636969
v -11.501451 0.005745 7.636969
v -11.501451 -0.005745 -7.636969
v -11.501451 0.005745 -7.636969
v -8.556201 -0.005745 -7.636969
v -8.556201 0.005745 -7.636969
v -8.556201 -0.005745 7.636969
v -8.556201 0.005745 7.636969
v -3.007603 0.005745 7.636969
v 11.501451 -0.005745 5.707416
v -11.660782 0.031824 7.666872
v -11.660782 -0.016907 7.666872
v -0.328013 -0.005745 7.636969
v 11.698223 0.031824 7.666872
v 11.698223 -0.016907 7.666872
v 11.698223 0.031824 -7.617023
v -11.660782 0.031824 -7.617023
v 11.698223 -0.016907 -7.617023
v -11.660782 -0.016907 -7.617023
v -4.218593 0.031824 -7.617023
v -4.218593 -0.016907 -7.617023
v -4.218593 -0.016907 7.666872
v -4.218593 0.031824 7.666872
v -8.543468 -0.016907 -7.617023
v -8.543468 0.031824 7.666872
v -8.543468 0.031824 -7.617023
v -8.543468 -0.016907 7.666872
vt 0.000000 1.000000
vt 1.000000 0.000000
vt 0.000000 0.000000
vt 0.128038 1.000000
vt 0.128038 0.000000
vt 0.000000 0.000000
vt 0.128038 -1.000000
vt 0.128038 0.000000
vt 0.128038 0.000000
vt 0.000000 -1.000000
vt 0.000000 0.000000
vt 0.000000 1.000000
vt 0.000000 1.000000
vt -1.000000 0.000000
vt 0.000000 0.000000
vt 0.000000 0.000000
vt 0.000000 0.000000
vt 0.000000 0.000000
vt 0.000000 0.000000
vt 0.000000 0.000000
vt 0.000000 0.000000
vt 0.000000 0.000000
vt 0.000000 0.000000
vt 0.000000 0.000000
vt 0.000000 0.000000
vt 0.000000 0.000000
vt 0.000000 0.000000
vt 0.000000 0.000000
vt 0.000000 0.000000
vt 0.000000 0.000000
vt 0.000000 0.000000
vt 1.000000 1.000000
vt 0.000000 -1.000000
vt 0.128038 -1.000000
vt 0.128038 1.000000
vt -1.000000 1.000000
vn -1.0000 0.0000 0.0000
vn 0.0000 0.0000 1.0000
vn 0.0000 1.0000 0.0000
vn 0.0000 -1.0000 0.0000
vn 0.0000 0.0000 -1.0000
vn 1.0000 0.0000 0.0000
s off
f 2/1/1 3/2/1 1/3/1
f 8/4/2 1/3/2 7/5/2
f 4/6/3 8/7/3 6/8/3
f 5/9/4 1/10/4 3/11/4
f 4/12/5 5/9/5 3/11/5
f 6/13/6 7/14/6 5/15/6
f 11/16/1 19/17/1 12/18/1
f 20/19/5 18/20/5 21/21/5
f 16/22/6 15/23/6 18/20/6
f 25/24/2 12/18/2 27/25/2
f 18/20/4 22/26/4 21/21/4
f 17/27/3 25/24/3 26/28/3
f 20/19/3 14/29/3 16/22/3
f 14/29/2 22/26/2 15/23/2
f 26/28/5 21/21/5 24/30/5
f 17/27/5 24/30/5 19/17/5
f 24/30/4 12/18/4 19/17/4
f 23/31/2 27/25/2 22/26/2
f 2/1/1 4/32/1 3/2/1
f 8/4/2 2/1/2 1/3/2
f 4/6/3 2/33/3 8/7/3
f 5/9/4 7/34/4 1/10/4
f 4/12/5 6/35/5 5/9/5
f 6/13/6 8/36/6 7/14/6
f 11/16/1 17/27/1 19/17/1
f 20/19/5 16/22/5 18/20/5
f 16/22/6 14/29/6 15/23/6
f 25/24/2 11/16/2 12/18/2
f 18/20/4 15/23/4 22/26/4
f 17/27/3 11/16/3 25/24/3
f 20/19/3 23/31/3 14/29/3
f 14/29/2 23/31/2 22/26/2
f 26/28/5 20/19/5 21/21/5
f 17/27/5 26/28/5 24/30/5
f 24/30/4 27/25/4 12/18/4
f 23/31/2 25/24/2 27/25/2
