# Blender v2.79 (sub 0) OBJ File: 'Level1_well_done.blend'
# www.blender.org
o Cube.004_Cube.006
v -11.501451 -0.025831 7.636969
v -11.501451 0.025831 7.636969
v -11.501451 -0.025831 -7.636969
v -11.501451 0.025831 -7.636969
v 11.501451 -0.025831 7.636969
v 11.501451 0.025831 7.636969
v 11.501451 -0.025831 -7.636969
v 11.501451 0.025831 -7.636969
v -8.556201 -0.025831 -7.636969
v -8.556201 0.025831 -7.636969
v -8.556201 -0.025831 7.636969
v -8.556201 0.025831 7.636969
v -4.271862 0.025831 -7.636969
v -4.271862 -0.025831 7.636969
v -4.271862 -0.025831 -7.636969
v -4.271862 0.025831 7.636969
v -3.007602 0.025831 -7.636969
v -3.007602 -0.025831 7.636969
v -3.007603 -0.025831 -7.636969
v -3.007603 0.025831 7.636969
v -1.478877 0.025831 -7.636969
v -1.478877 -0.025831 7.636969
v -1.478878 -0.025831 -7.636969
v -1.478878 0.025831 7.636969
v 11.501451 -0.025831 5.707416
v 11.501451 0.025831 5.707416
v -3.007603 0.025831 5.707416
v -3.007602 -0.025831 5.707416
v -1.478877 0.025831 5.707416
v -1.478877 -0.025831 5.707416
v 11.501451 -0.025831 4.161420
v 11.501451 0.025831 4.161420
v -3.007603 0.025831 4.161420
v -3.007602 -0.025831 4.161420
v -1.478877 0.025831 4.161420
v -1.478877 -0.025831 4.161420
v -0.328013 0.025831 -7.636969
v -0.328013 -0.025831 7.636969
v -0.328014 -0.025831 -7.636969
v -0.328014 0.025831 7.636969
v -0.328014 0.025831 5.707416
v -0.328013 -0.025831 5.707416
v -0.328013 -0.025831 4.161420
v -0.328014 0.025831 4.161420
v 1.076949 0.025831 -7.636969
v 1.076949 -0.025831 7.636969
v 1.076948 0.025831 5.707416
v 1.076948 0.025831 4.161420
v 1.076948 -0.025831 -7.636969
v 1.076948 0.025831 7.636969
v 1.076949 -0.025831 5.707416
v 1.076949 -0.025831 4.161420
vt 0.000000 1.000000
vt 1.000000 0.000000
vt 0.000000 0.000000
vt 0.546818 1.000000
vt 1.000000 0.000000
vt 0.546818 0.000000
vt 0.126330 1.000000
vt 0.000000 0.000000
vt 0.126330 0.000000
vt 0.128038 1.000000
vt 0.128038 0.000000
vt 0.000000 0.000000
vt 0.128038 -1.000000
vt 0.128038 0.000000
vt 0.128038 0.000000
vt 0.000000 -1.000000
vt 0.000000 0.000000
vt 0.314290 1.000000
vt 0.314290 0.000000
vt 0.000000 1.000000
vt 0.369251 1.000000
vt 0.369251 0.000000
vt 0.128038 1.000000
vt 0.314290 0.000000
vt 0.435709 1.000000
vt 0.435709 0.000000
vt 0.314290 1.000000
vt 0.369251 0.000000
vt 0.485740 1.000000
vt 0.485740 0.000000
vt 0.369251 1.000000
vt 0.435709 0.000000
vt 0.227548 1.000000
vt 0.227548 0.000000
vt 0.000000 1.000000
vt -0.772452 0.000000
vt 0.000000 0.000000
vt 0.000000 1.000000
vt -1.000000 0.000000
vt 0.000000 0.000000
vt 0.435709 1.000000
vt 0.546818 1.000000
vt 0.546818 0.000000
vt 0.485740 0.000000
vt 0.000000 1.000000
vt -0.453182 0.000000
vt 0.485740 1.000000
vt 0.314290 1.000000
vt 1.000000 0.000000
vt 1.000000 1.000000
vt 1.000000 1.000000
vt 0.000000 -1.000000
vt 0.128038 -1.000000
vt -0.772452 1.000000
vt -1.000000 1.000000
vt -1.000000 0.000000
vt -0.453182 1.000000
vt 1.000000 1.000000
vn -1.0000 0.0000 0.0000
vn 0.0000 0.0000 -1.0000
vn 1.0000 0.0000 0.0000
vn 0.0000 0.0000 1.0000
vn 0.0000 1.0000 0.0000
vn 0.0000 -1.0000 0.0000
s off
f 2/1/1 3/2/1 1/3/1
f 45/4/2 7/5/2 49/6/2
f 26/7/3 5/8/3 25/9/3
f 12/10/4 1/3/4 11/11/4
f 4/12/5 12/13/5 10/14/5
f 9/15/6 1/16/6 3/17/6
f 16/18/4 11/11/4 14/19/4
f 4/20/2 9/15/2 3/17/2
f 20/21/4 14/19/4 18/22/4
f 10/23/2 15/24/2 9/15/2
f 24/25/4 18/22/4 22/26/4
f 13/27/2 19/28/2 15/24/2
f 40/29/4 22/26/4 38/30/4
f 17/31/2 23/32/2 19/28/2
f 32/33/3 25/9/3 31/34/3
f 8/35/3 31/36/3 7/37/3
f 15/24/1 16/18/1 13/27/1
f 10/38/3 11/39/3 9/40/3
f 24/25/5 40/29/5 21/41/5
f 50/42/4 38/30/4 46/43/4
f 21/41/2 39/44/2 23/32/2
f 6/45/4 46/46/4 5/8/4
f 37/47/2 49/6/2 39/44/2
f 15/48/6 5/49/6 14/19/6
f 19/28/2 39/44/2 23/32/2
f 19/28/4 49/6/4 39/44/4
f 49/6/4 19/28/4 15/24/4
f 7/5/4 49/6/4 15/24/4
f 18/22/4 22/26/4 14/19/4
f 38/30/4 46/43/4 22/26/4
f 22/26/4 46/43/4 14/19/4
f 46/46/2 5/8/2 14/19/2
f 31/34/4 5/8/4 25/9/4
f 31/36/5 7/37/5 5/8/5
f 2/1/1 4/50/1 3/2/1
f 45/4/2 8/51/2 7/5/2
f 26/7/3 6/45/3 5/8/3
f 12/10/4 2/1/4 1/3/4
f 4/12/5 2/52/5 12/13/5
f 9/15/6 11/53/6 1/16/6
f 16/18/4 12/10/4 11/11/4
f 4/20/2 10/23/2 9/15/2
f 20/21/4 16/18/4 14/19/4
f 10/23/2 13/27/2 15/24/2
f 24/25/4 20/21/4 18/22/4
f 13/27/2 17/31/2 19/28/2
f 40/29/4 24/25/4 22/26/4
f 17/31/2 21/41/2 23/32/2
f 32/33/3 26/7/3 25/9/3
f 8/35/3 32/54/3 31/36/3
f 15/24/1 14/19/1 16/18/1
f 10/38/3 12/55/3 11/39/3
f 8/35/5 45/4/5 32/54/5
f 45/4/5 37/47/5 50/42/5
f 32/54/5 45/4/5 50/42/5
f 21/41/5 17/31/5 20/21/5
f 17/31/5 13/27/5 16/56/5
f 17/31/5 16/56/5 20/21/5
f 37/47/5 21/41/5 40/29/5
f 50/42/5 37/47/5 40/29/5
f 50/42/5 6/45/5 32/54/5
f 20/21/5 24/25/5 21/41/5
f 50/42/4 40/29/4 38/30/4
f 21/41/2 37/47/2 39/44/2
f 6/45/4 50/57/4 46/46/4
f 37/47/2 45/4/2 49/6/2
f 15/48/6 7/58/6 5/49/6
l 33 34
l 35 36
l 27 28
l 29 30
l 52 48
l 43 44
l 42 41
l 47 51
