# Blender v2.79 (sub 0) OBJ File: 'Level1_well_done.blend'
# www.blender.org
o Cylinder_Cylinder.007
v 0.001425 -0.386140 -1.165264
v 0.001425 0.395937 -1.165264
v 0.746779 -0.386140 -0.893977
v 0.746779 0.395937 -0.893977
v 1.143374 -0.386140 -0.207055
v 1.143374 0.395937 -0.207055
v 1.005638 -0.386140 0.574085
v 1.005638 0.395937 0.574085
v 0.398020 -0.386140 1.083937
v 0.398020 0.395937 1.083937
v -0.395170 -0.386140 1.083937
v -0.395170 0.395937 1.083937
v -1.002789 -0.386140 0.574085
v -1.002789 0.395937 0.574085
v -1.140525 -0.386140 -0.207055
v -1.140525 0.395937 -0.207055
v -0.743930 -0.386140 -0.893977
v -0.743930 0.395937 -0.893977
v -0.328384 0.395936 0.900443
v -0.328384 -0.386140 0.900443
v 0.331233 0.395936 0.900443
v 0.331233 -0.386140 0.900443
v 0.621262 0.395937 -0.744391
v 0.621262 -0.386140 -0.744391
v 0.001425 0.395936 -0.969993
v 0.001425 -0.386140 -0.969993
v 0.836529 0.395936 0.476449
v 0.836529 -0.386140 0.476449
v -0.833679 0.395937 0.476449
v -0.833679 -0.386140 0.476449
v -0.618412 0.395936 -0.744391
v -0.618412 -0.386140 -0.744391
v -0.948220 0.395936 -0.173146
v -0.948220 -0.386140 -0.173146
v 0.951070 0.395937 -0.173146
v 0.951070 -0.386140 -0.173146
v 0.348527 0.395936 0.885931
v -0.022531 0.395937 -1.156545
v -0.392668 0.395937 1.083937
v -0.395170 0.392717 1.083937
vt 0.200135 0.002449
vt 0.200135 1.002449
vt 0.521529 0.002449
vt 0.889650 0.002449
vt 0.889650 1.002449
vt 0.593451 0.002449
vt 0.593451 1.002449
vt 0.256627 0.002449
vt 0.633148 0.002449
vt 0.633148 1.002449
vt 0.371145 0.002449
vt 0.371145 1.002449
vt 0.029125 0.002449
vt 0.029125 0.998332
vt -0.232878 0.002449
vt 0.256627 0.002449
vt 0.256627 1.002449
vt 0.593451 0.002449
vt 0.521529 0.889650
vt 0.467406 0.825149
vt 0.692539 0.593451
vt 0.593451 1.002449
vt 0.889650 0.002449
vt 1.189805 1.002449
vt 1.200135 0.002449
vt 0.878741 0.002449
vt 0.200135 0.006627
vt 0.200135 -0.077573
vt -0.121259 -0.110350
vt 0.578830 1.002449
vt 0.825149 0.002449
vt 0.578830 0.002449
vt 0.609618 0.578830
vt 0.633148 0.256627
vt 0.200135 1.002449
vt -0.067136 0.002449
vt 0.200135 0.002449
vt 0.298727 1.002449
vt 0.298727 0.002449
vt 0.840042 0.002449
vt 1.057923 1.002449
vt 1.057923 0.002449
vt 0.578830 1.002449
vt 0.298727 0.002449
vt 0.578830 0.002449
vt 1.342347 0.115903
vt 1.560228 0.298727
vt 1.371145 0.036781
vt 0.349804 1.002449
vt 0.560228 1.002449
vt 0.560228 0.002449
vt 0.825149 0.002449
vt 0.467406 0.002449
vt 0.057923 0.002449
vt 0.342347 1.002449
vt 0.342347 0.002449
vt 0.349804 0.122160
vt 0.371145 0.036781
vt 0.342347 0.115903
vt 0.057923 0.115903
vt -0.159958 0.298727
vt 0.029125 0.036781
vt 0.030204 0.036781
vt -0.232878 0.256627
vt 0.767122 0.256627
vt 0.840042 0.298727
vt 0.707731 0.593451
vt 0.790652 0.578830
vt 0.932864 0.825149
vt 0.878741 0.889650
vt 0.200135 0.922427
vt 0.189805 1.002868
vt -0.067136 0.825149
vt 1.189805 1.002868
vt 0.200135 1.006627
vt 0.560228 0.298727
vt 0.189805 0.002449
vt -0.121259 -0.997551
vt -0.121259 0.002449
vt 0.889650 1.002449
vt 0.030204 1.002449
vt 0.029125 1.002449
vt 1.029125 0.998332
vt 0.767122 1.002449
vt 0.767122 0.002449
vt 0.256627 1.002449
vt 0.521529 1.002449
vt 1.200135 1.002449
vt 0.521529 -0.110350
vt 0.692539 -0.406549
vt 0.609618 -0.421170
vt 0.467406 -0.174851
vt -0.209348 -0.421170
vt -0.292269 -0.406549
vt -0.067136 -0.174851
vt 0.825149 1.002450
vt -0.067136 1.002449
vt 0.840042 1.002450
vt 0.298727 1.002450
vt 0.767122 0.256627
vt 0.707731 0.593451
vt 0.790652 0.578830
vt 0.840042 0.298727
vt 1.609618 0.578830
vt 1.692539 0.593451
vt 1.633148 0.256627
vt 1.029125 0.036781
vt 1.057923 0.115903
vt 0.825149 1.002449
vt 0.467406 1.002450
vt 0.057923 1.002449
vt 1.029125 1.002449
vn 0.3420 0.0000 -0.9397
vn 0.8660 0.0000 -0.5000
vn 0.9848 0.0000 0.1736
vn 0.6428 0.0000 0.7660
vn -0.0000 0.0000 1.0000
vn -0.6428 0.0000 0.7660
vn -0.9848 0.0000 0.1736
vn 0.0000 1.0000 -0.0000
vn -0.8660 0.0000 -0.5000
vn -0.3420 0.0000 -0.9397
vn -0.0000 -1.0000 -0.0000
vn -0.8660 0.0000 0.5000
vn 0.3420 0.0000 0.9397
vn -0.9848 0.0000 -0.1736
vn 0.6428 0.0000 -0.7660
vn 0.9848 0.0000 -0.1736
vn -0.6428 0.0000 -0.7660
vn 0.8660 0.0000 0.5000
vn -0.3420 0.0000 0.9397
vn 0.0000 0.0000 -1.0000
s off
f 1/1/1 2/2/1 3/3/1
f 3/4/2 4/5/2 5/6/2
f 5/6/3 6/7/3 7/8/3
f 7/9/4 8/10/4 9/11/4
f 9/11/5 10/12/5 11/13/5
f 11/13/6 40/14/6 13/15/6
f 13/16/7 14/17/7 15/18/7
f 4/19/8 23/20/8 6/21/8
f 15/18/9 16/22/9 17/23/9
f 38/24/10 1/25/10 17/26/10
f 1/27/11 26/28/11 17/29/11
f 35/30/12 24/31/12 36/32/12
f 6/21/8 35/33/8 8/34/8
f 25/35/13 32/36/13 26/37/13
f 27/38/14 36/32/14 28/39/14
f 30/40/15 19/41/15 20/42/15
f 33/43/16 30/44/16 34/45/16
f 22/46/11 28/47/11 9/48/11
f 37/49/17 27/50/17 28/51/17
f 32/52/18 33/43/18 34/45/18
f 24/53/19 25/35/19 26/37/19
f 20/54/20 21/55/20 22/56/20
f 37/57/8 10/58/8 8/34/8
f 10/58/8 21/59/8 19/60/8
f 19/60/8 29/61/8 12/62/8
f 39/63/8 19/60/8 12/62/8
f 12/62/8 29/61/8 14/64/8
f 14/65/8 29/66/8 16/67/8
f 16/67/8 29/66/8 33/68/8
f 31/69/8 18/70/8 16/67/8
f 25/71/8 38/72/8 31/73/8
f 23/20/8 4/19/8 25/71/8
f 16/67/8 33/68/8 31/69/8
f 31/69/8 38/74/8 18/70/8
f 25/71/8 2/75/8 38/72/8
f 6/21/8 23/20/8 35/33/8
f 8/34/8 35/33/8 27/76/8
f 27/76/8 37/57/8 8/34/8
f 38/77/10 17/78/10 18/79/10
f 17/23/9 16/22/9 18/80/9
f 15/18/7 14/17/7 16/22/7
f 40/14/5 39/81/5 12/82/5
f 40/83/6 14/84/6 13/85/6
f 10/12/5 40/14/5 11/13/5
f 9/11/4 8/10/4 10/12/4
f 7/8/3 6/7/3 8/86/3
f 5/6/2 4/5/2 6/7/2
f 3/3/1 2/2/1 4/87/1
f 38/24/10 2/88/10 1/25/10
f 3/89/11 5/90/11 36/91/11
f 3/89/11 36/91/11 24/92/11
f 34/93/11 15/94/11 17/29/11
f 32/95/11 34/93/11 17/29/11
f 1/27/11 3/89/11 24/92/11
f 26/28/11 32/95/11 17/29/11
f 1/27/11 24/92/11 26/28/11
f 35/30/12 23/96/12 24/31/12
f 25/35/13 31/97/13 32/36/13
f 27/38/14 35/30/14 36/32/14
f 30/40/15 29/98/15 19/41/15
f 33/43/16 29/99/16 30/44/16
f 13/100/11 15/101/11 34/102/11
f 13/100/11 34/102/11 30/103/11
f 36/104/11 5/105/11 7/106/11
f 28/47/11 36/104/11 7/106/11
f 11/107/11 13/100/11 30/103/11
f 11/107/11 30/103/11 20/108/11
f 28/47/11 7/106/11 9/48/11
f 11/107/11 20/108/11 9/48/11
f 20/108/11 22/46/11 9/48/11
f 28/51/17 22/56/17 37/49/17
f 22/56/17 21/55/17 37/49/17
f 32/52/18 31/109/18 33/43/18
f 24/53/19 23/110/19 25/35/19
f 20/54/20 19/111/20 21/55/20
f 37/57/8 21/59/8 10/58/8
f 39/63/8 10/58/8 19/60/8
f 25/71/8 4/19/8 2/75/8
f 40/83/6 12/112/6 14/84/6
f 10/12/5 39/81/5 40/14/5
