# Blender v2.79 (sub 0) OBJ File: 'Level1_well_done.blend'
# www.blender.org
o Cylinder.007_Cylinder.002
v 0.000000 -0.648232 -3.685430
v 0.000000 0.648232 -3.685430
v 2.605992 -0.648232 -2.605992
v 2.605992 0.648232 -2.605992
v 3.685430 -0.648232 0.000000
v 3.685430 0.648232 0.000000
v 2.605992 -0.648232 2.605992
v 2.605992 0.648232 2.605992
v -0.000000 -0.648232 3.685430
v -0.000000 0.648232 3.685430
v -2.605993 -0.648232 2.605992
v -2.605993 0.648232 2.605992
v -3.685430 -0.648232 -0.000000
v -3.685430 0.648232 -0.000000
v -2.605993 -0.648232 -2.605992
v -2.605993 0.648232 -2.605992
v 2.187359 -1.048344 2.187359
v 2.605992 -0.952137 2.605992
v 3.093394 -1.048344 0.000000
v 3.685430 -0.952137 0.000000
v 2.187359 -1.048344 -2.187359
v 2.605992 -0.952137 -2.605992
v -0.000000 -0.952137 -3.685430
v 0.000000 -1.048344 -3.093394
v 0.000000 -1.048344 -3.093394
v -0.000000 -0.952137 -3.685430
v 2.605992 -0.952137 -2.605992
v 2.187359 -1.048344 -2.187359
v 3.685430 -0.952137 0.000000
v 3.093394 -1.048344 0.000000
v 2.605992 -0.952137 2.605992
v 2.187359 -1.048344 2.187359
v -0.000000 -0.952137 3.685430
v -0.000000 -1.048344 3.093394
v -2.605993 -0.952137 2.605992
v -2.187360 -1.048344 2.187359
v -3.685430 -0.952137 -0.000000
v -3.093394 -1.048344 -0.000000
v -2.605993 -0.952137 -2.605992
v -2.187360 -1.048344 -2.187359
v -0.000000 -0.952137 3.685430
v -0.000000 -1.048344 3.093394
v -2.605993 -0.952137 2.605992
v -2.187360 -1.048344 2.187359
v -3.685430 -0.952137 -0.000000
v -3.093394 -1.048344 -0.000000
v -2.605993 -0.952137 -2.605992
v -2.187360 -1.048344 -2.187359
v -0.000000 -1.728863 2.552451
v -0.000000 -1.848568 1.815809
v -1.283972 -1.848568 1.283971
v -1.804856 -1.728863 1.804855
v -2.552451 -1.728863 0.000000
v -1.815810 -1.848568 0.000000
v -1.283971 -1.848568 -1.283971
v -1.804855 -1.728863 -1.804855
v 2.187359 -1.250176 -2.187359
v 1.804855 -1.338080 -1.804855
v 0.000000 -1.338080 -2.552451
v 0.000000 -1.250176 -3.093394
v 3.093394 -1.250176 0.000000
v 2.552451 -1.338080 0.000000
v 2.187359 -1.250176 2.187359
v 1.804855 -1.338080 1.804855
v -0.000000 -1.250176 3.093394
v -0.000000 -1.338080 2.552451
v -2.187360 -1.250176 2.187359
v -1.804856 -1.338080 1.804855
v -3.093394 -1.250176 -0.000000
v -2.552451 -1.338080 0.000000
v -2.187360 -1.250176 -2.187359
v -1.804855 -1.338080 -1.804855
v -1.804855 -1.728863 -1.804855
v -1.283971 -1.848568 -1.283971
v -1.815810 -1.848568 0.000000
v -2.552451 -1.728863 0.000000
v -1.283972 -1.848568 1.283971
v -1.804856 -1.728863 1.804855
v -0.000000 -1.848568 1.815809
v -0.000000 -1.728863 2.552451
v 1.804855 -1.728863 1.804855
v 1.283971 -1.848568 1.283971
v 1.815809 -1.848568 0.000000
v 2.552451 -1.728863 0.000000
v 0.000000 -1.848568 -1.815809
v 0.000000 -1.728863 -2.552451
v 1.283971 -1.848568 -1.283971
v 1.804855 -1.728863 -1.804855
v 1.804855 -1.728863 1.804855
v 1.283971 -1.848568 1.283971
v 1.815809 -1.848568 0.000000
v 2.552451 -1.728863 0.000000
v 0.000000 -1.728863 -2.552451
v 0.000000 -1.848568 -1.815809
v 1.283971 -1.848568 -1.283971
v 1.804855 -1.728863 -1.804855
v -0.000000 -2.291181 1.815809
v -0.000000 -2.372852 1.313224
v -0.928590 -2.372852 0.928589
v -1.283972 -2.291181 1.283971
v -1.815810 -2.291181 0.000000
v -1.313224 -2.372852 0.000000
v -0.928590 -2.372852 -0.928589
v -1.283971 -2.291181 -1.283971
v -1.283971 -2.291181 -1.283971
v -0.928590 -2.372852 -0.928589
v -1.313224 -2.372852 0.000000
v -1.815810 -2.291181 0.000000
v -1.283972 -2.291181 1.283971
v -0.928590 -2.372852 0.928589
v -0.000000 -2.372852 1.313224
v -0.000000 -2.291181 1.815809
v 1.283971 -2.291181 1.283971
v 0.928589 -2.372852 0.928589
v 1.313224 -2.372852 0.000000
v 1.815809 -2.291181 0.000000
v 0.000000 -2.291181 -1.815809
v 0.000000 -2.372852 -1.313224
v 0.928589 -2.372852 -0.928589
v 1.283971 -2.291181 -1.283971
v 1.283971 -2.291181 1.283971
v 0.928589 -2.372852 0.928589
v 1.313224 -2.372852 0.000000
v 1.815809 -2.291181 0.000000
v 0.000000 -2.291181 -1.815809
v 0.000000 -2.372852 -1.313224
v 0.928589 -2.372852 -0.928589
v 1.283971 -2.291181 -1.283971
v -0.928590 -2.823788 -0.928589
v -0.669459 -2.883340 -0.669458
v -0.946758 -2.883340 0.000000
v -1.313224 -2.823788 0.000000
v -0.928590 -2.823788 0.928589
v -0.669459 -2.883340 0.669459
v -0.000000 -2.883340 0.946758
v -0.000000 -2.823788 1.313224
v 0.928589 -2.823788 0.928589
v 0.669459 -2.883340 0.669459
v 0.946758 -2.883340 0.000000
v 1.313224 -2.823788 0.000000
v 0.000000 -2.823788 -1.313224
v 0.000000 -2.883340 -0.946758
v 0.669459 -2.883340 -0.669459
v 0.928589 -2.823788 -0.928589
v 0.669459 -3.320071 -0.669459
v 0.288483 -3.407624 -0.288483
v 0.000000 -3.407624 -0.407976
v 0.000000 -3.320071 -0.946758
v 0.407976 -3.407624 0.000000
v 0.946758 -3.320071 0.000000
v 0.288483 -3.407624 0.288483
v 0.669459 -3.320071 0.669459
v -0.000000 -3.407624 0.407976
v -0.000000 -3.320071 0.946758
v -0.669459 -3.320071 0.669459
v -0.288483 -3.407624 0.288483
v -0.407976 -3.407624 0.000000
v -0.946758 -3.320071 0.000000
v -0.669459 -3.320071 -0.669458
v -0.288483 -3.407624 -0.288483
v -0.000000 -3.862924 0.188288
v -0.000000 -3.827224 0.407976
v -0.133140 -3.862924 0.133140
v -0.288483 -3.827224 0.288483
v -0.188288 -3.862924 0.000000
v -0.407976 -3.827224 0.000000
v -0.133140 -3.862924 -0.133140
v -0.288483 -3.827224 -0.288483
v 0.288483 -3.827224 0.288483
v 0.133140 -3.862924 0.133140
v 0.188288 -3.862924 0.000000
v 0.407976 -3.827224 0.000000
v 0.000000 -3.862924 -0.188288
v 0.000000 -3.827224 -0.407976
v 0.133140 -3.862924 -0.133140
v 0.288483 -3.827224 -0.288483
vt 1.078497 1.397704
vt 0.944355 0.813383
vt 1.069082 0.791943
vt 0.936632 1.419144
vt 0.824270 0.473824
vt 0.805790 1.079585
vt 0.707371 -0.027824
vt 0.688378 0.577936
vt 0.578497 -0.397704
vt 0.569082 0.208057
vt 0.436632 -0.419143
vt 0.444355 0.186617
vt 0.305790 -0.079585
vt 1.324270 0.526176
vt 0.324270 0.526176
vt 0.188378 0.422064
vt 0.207371 1.027824
vt 0.069082 0.791943
vt 0.828327 0.331828
vt 0.184160 0.280067
vt 0.434519 -0.561140
vt 0.945911 0.671387
vt 0.583703 -0.489098
vt 0.720434 -0.272941
vt 0.716650 -0.178637
vt 0.712032 -0.169821
vt 0.301198 -0.221581
vt 0.581055 -0.539700
vt 0.945911 0.671387
vt 1.065403 0.509441
vt 1.067173 0.649947
vt 0.296625 -0.222083
vt 0.432323 -0.507094
vt 0.296625 -0.222083
vt 0.947353 0.527437
vt 0.947353 0.527437
vt 0.581055 -0.539700
vt 0.712032 -0.169821
vt 0.832185 0.242426
vt 0.716650 -0.178637
vt 0.301198 -0.221581
vt 0.434519 -0.561140
vt 1.067173 0.649947
vt 0.065403 0.509441
vt 0.180133 0.198980
vt 0.065403 0.509441
vt 0.432323 -0.507094
vt 0.583703 -0.489098
vt 0.828327 0.331828
vt 0.184160 0.280067
vt 0.067174 0.649947
vt 0.832185 0.242426
vt 0.180133 0.198980
vt 0.948467 0.433133
vt 0.292862 -0.316387
vt 0.285808 -0.316845
vt 0.421376 -0.734605
vt 0.426708 -0.552016
vt 0.835234 0.148122
vt 0.585966 -0.583402
vt 0.061646 0.286757
vt 0.164246 -0.152003
vt 0.171224 0.030586
vt 0.176939 0.104676
vt 0.430441 -0.601398
vt 1.061646 0.286757
vt 0.950403 0.301606
vt 0.840670 0.066435
vt 0.727484 -0.280996
vt 0.590431 -0.537167
vt 0.064032 0.415137
vt 1.064032 0.415137
vt 1.065403 0.509441
vt 0.847270 -0.116154
vt 0.406567 -0.667358
vt 0.629601 -0.863601
vt 0.613946 -0.656795
vt 1.058838 0.104168
vt 0.736599 -0.463585
vt 0.255563 -0.500057
vt 0.164246 -0.152003
vt 0.149959 -0.252896
vt 0.952675 0.119017
vt 0.596754 -0.719756
vt 0.276606 -0.499434
vt 0.276606 -0.499434
vt 0.847270 -0.116154
vt 0.952675 0.119017
vt 0.757113 -0.474555
vt 0.860674 -0.227393
vt 0.757113 -0.474555
vt 0.149959 -0.252896
vt 0.421376 -0.734605
vt 0.860674 -0.227393
vt 0.957071 -0.060093
vt 0.255563 -0.500057
vt 0.406567 -0.667358
vt 0.596754 -0.719756
vt 0.613946 -0.656795
vt 0.736599 -0.463585
vt 0.053393 -0.070656
vt 0.058838 0.104168
vt 1.053393 -0.070656
vt 0.957071 -0.060093
vt 0.053393 -0.070656
vt 1.058838 0.104168
vt 0.140755 -0.459702
vt 0.207322 -0.707290
vt 0.140755 -0.459702
vt 0.122965 -0.528538
vt 0.959756 -0.266899
vt 0.869242 -0.434200
vt 0.771686 -0.681362
vt 0.912441 -0.776129
vt 0.974553 -0.892958
vt 0.972464 -0.688899
vt 1.050057 -0.277463
vt 1.053393 -0.070656
vt 0.392612 -0.874165
vt 0.050057 -0.277463
vt 0.959756 -0.266899
vt 1.050057 -0.277463
vt 0.043888 -0.396739
vt 0.043888 -0.396739
vt 0.964713 -0.389100
vt 1.043887 -0.396739
vt 0.964713 -0.389100
vt 0.345482 -0.828284
vt 0.678298 -0.820645
vt 0.345482 -0.828284
vt 0.629601 -0.863601
vt 0.771686 -0.681362
vt 0.869242 -0.434200
vt 0.678298 -0.820645
vt 0.802687 -0.688846
vt 0.240345 -0.706864
vt 0.392612 -0.874165
vt 0.885685 -0.510094
vt 0.240345 -0.706864
vt 0.207322 -0.707290
vt 0.885685 -0.510094
vt 0.122965 -0.528538
vt 0.802687 -0.688846
vt 0.113501 -0.739233
vt 0.967261 -0.599795
vt 0.894388 -0.720790
vt 0.820425 -0.899541
vt 0.034216 -0.694407
vt 0.085864 -0.993484
vt 0.093813 -0.789426
vt 1.040709 -0.607435
vt 1.043887 -0.396739
vt 0.300373 -1.038980
vt 0.719525 -1.031340
vt 0.188127 -0.917985
vt 0.831461 -1.000018
vt 1.300373 -1.038980
vt 1.163757 -1.005525
vt 0.858652 -0.904999
vt 0.040710 -0.607435
vt 1.034216 -0.694407
vt 0.163757 -1.005525
vt 0.146458 -0.918296
vt 0.874033 -1.109057
vt 0.919727 -0.980188
vt 0.129732 -1.122354
vt 0.945841 -1.117080
vt 0.962086 -1.257602
vt 0.958143 -1.061548
vt 0.871014 -1.204076
vt 0.118812 -1.209584
vt 0.053796 -1.122810
vt 0.022024 -1.356453
vt 0.025809 -1.160399
vt 1.017497 -1.026332
vt 0.985867 -1.023959
vt 0.044213 -1.067278
vt 0.968833 -1.158026
vt 1.118812 -1.209584
vt 1.025809 -1.160399
vt 0.017497 -1.026332
vt 0.031608 -0.898465
vt 1.031608 -0.898465
vt 0.978719 -1.316406
vt 1.008483 -1.336398
vt 1.019510 -1.293421
vt 1.015978 -1.222386
vt 0.987088 -1.220013
vt 0.951994 -1.313134
vt 0.047524 -1.318864
vt 0.039983 -1.263332
vt 0.019510 -1.293421
vt 0.015978 -1.222386
vt 0.008227 -1.274524
vt 0.981340 -1.290777
vt 0.993333 -1.273429
vt 0.973319 -1.354080
vt 0.989617 -1.335303
vt 0.008483 -1.336398
vt 0.020764 -1.319050
vt 1.022024 -1.356453
vt 1.008227 -1.274524
vt 1.207371 1.027824
vt 0.078497 1.397704
vt 0.067174 0.649947
vt 0.058838 0.104168
vt 0.050057 -0.277463
vt 1.020764 -1.319050
vn 0.3827 0.0000 -0.9239
vn 0.9239 0.0000 -0.3827
vn 0.9239 0.0000 0.3827
vn 0.3827 0.0000 0.9239
vn -0.3827 0.0000 0.9239
vn -0.9239 0.0000 0.3827
vn 0.0000 1.0000 0.0000
vn -0.9239 0.0000 -0.3827
vn -0.3827 0.0000 -0.9239
vn 0.0663 -0.9849 -0.1600
vn 0.0000 0.0000 1.0000
vn 0.1600 -0.9849 -0.0663
vn 0.1600 -0.9849 0.0663
vn 0.0663 -0.9849 0.1600
vn -0.0663 -0.9849 0.1600
vn -0.1600 -0.9849 0.0663
vn -0.1600 -0.9849 -0.0663
vn -0.0663 -0.9849 -0.1600
vn 0.0000 -1.0000 0.0000
vn -0.0663 -0.9849 0.1601
s off
f 2/1/1 3/2/1 1/3/1
f 4/4/2 5/5/2 3/2/2
f 6/6/3 7/7/3 5/5/3
f 8/8/4 9/9/4 7/7/4
f 10/10/5 11/11/5 9/9/5
f 12/12/6 13/13/6 11/11/6
f 6/6/7 2/1/7 14/14/7
f 14/15/8 15/16/8 13/13/8
f 16/17/9 1/18/9 15/16/9
f 7/7/3 29/19/3 5/5/3
f 1/18/9 39/20/9 15/16/9
f 13/13/6 35/21/6 11/11/6
f 5/5/2 27/22/2 3/2/2
f 34/23/4 63/24/4 32/25/4
f 9/9/4 31/26/4 7/7/4
f 15/16/8 37/27/8 13/13/8
f 11/11/5 33/28/5 9/9/5
f 22/29/10 24/30/10 23/31/10
f 38/32/11 44/33/11 46/34/11
f 28/35/11 24/30/11 21/36/11
f 31/26/11 41/37/11 18/38/11
f 32/25/11 19/39/11 17/40/11
f 35/21/11 45/41/11 43/42/11
f 26/43/11 22/29/11 23/31/11
f 25/44/11 48/45/11 24/46/11
f 36/47/11 42/48/11 44/33/11
f 3/2/1 26/43/1 1/3/1
f 20/49/12 21/36/12 22/29/12
f 18/38/13 19/39/13 20/49/13
f 18/38/14 42/48/14 17/40/14
f 43/42/15 42/48/15 41/37/15
f 45/41/16 44/33/16 43/42/16
f 47/50/17 46/34/17 45/41/17
f 23/51/18 48/45/18 47/50/18
f 27/22/11 20/49/11 22/29/11
f 37/27/11 47/50/11 45/41/11
f 34/23/11 17/40/11 42/48/11
f 33/28/11 43/42/11 41/37/11
f 30/52/11 21/36/11 19/39/11
f 40/53/11 46/34/11 48/45/11
f 29/19/11 18/38/11 20/49/11
f 39/20/11 23/51/11 47/50/11
f 30/52/2 57/54/2 28/35/2
f 40/53/8 69/55/8 38/32/8
f 70/56/6 78/57/6 68/58/6
f 32/25/3 61/59/3 30/52/3
f 36/47/5 65/60/5 34/23/5
f 59/61/9 73/62/9 72/63/9
f 25/44/9 71/64/9 40/53/9
f 38/32/6 67/65/6 36/47/6
f 59/66/10 57/54/10 58/67/10
f 58/67/12 61/59/12 62/68/12
f 62/68/13 63/24/13 64/69/13
f 66/70/14 63/24/14 65/60/14
f 66/70/15 67/65/15 68/58/15
f 68/58/16 69/55/16 70/56/16
f 70/56/17 71/64/17 72/63/17
f 72/63/18 60/71/18 59/61/18
f 28/35/1 60/72/1 25/73/1
f 64/69/3 84/74/3 62/68/3
f 77/75/5 112/76/5 79/77/5
f 58/67/1 86/78/1 59/66/1
f 66/70/4 81/79/4 64/69/4
f 54/80/17 56/81/17 55/82/17
f 62/68/2 88/83/2 58/67/2
f 68/58/5 80/84/5 66/70/5
f 76/85/11 56/81/11 53/86/11
f 88/83/11 92/87/11 96/88/11
f 82/89/11 91/90/11 90/91/11
f 74/92/11 54/80/11 55/82/11
f 78/57/11 53/86/11 52/93/11
f 83/94/11 95/95/11 91/90/11
f 75/96/11 51/97/11 54/80/11
f 80/84/11 52/93/11 49/98/11
f 72/63/8 76/85/8 70/56/8
f 50/99/15 52/93/15 51/97/15
f 90/91/13 92/87/13 89/100/13
f 94/101/18 56/81/18 93/102/18
f 95/95/12 92/87/12 91/90/12
f 90/91/14 49/98/14 50/99/14
f 94/103/10 96/88/10 95/95/10
f 51/97/16 53/86/16 54/80/16
f 79/77/11 90/91/11 50/99/11
f 84/74/11 89/100/11 92/87/11
f 81/79/11 49/98/11 89/100/11
f 77/75/11 50/99/11 51/97/11
f 87/104/11 94/103/11 95/95/11
f 85/105/11 55/82/11 94/101/11
f 86/78/11 96/88/11 93/106/11
f 73/62/11 93/102/11 56/81/11
f 85/105/9 105/107/9 74/92/9
f 102/108/17 104/109/17 103/110/17
f 83/94/2 120/111/2 87/104/2
f 82/89/3 116/112/3 83/94/3
f 79/77/4 113/113/4 82/89/4
f 139/114/2 145/115/2 143/116/2
f 87/104/1 117/117/1 85/118/1
f 75/96/6 109/119/6 77/75/6
f 105/107/11 125/120/11 104/109/11
f 117/117/11 128/121/11 125/122/11
f 118/123/11 103/110/11 126/124/11
f 119/125/11 126/126/11 127/127/11
f 110/128/11 98/129/11 99/130/11
f 113/113/11 97/131/11 121/132/11
f 116/112/11 121/132/11 124/133/11
f 111/134/11 122/135/11 98/129/11
f 74/92/8 108/136/8 75/96/8
f 99/130/15 97/131/15 100/137/15
f 123/138/13 121/132/13 122/135/13
f 126/124/18 104/109/18 125/120/18
f 123/138/12 128/121/12 124/133/12
f 122/135/14 97/131/14 98/129/14
f 126/126/10 128/121/10 127/127/10
f 99/130/16 101/139/16 102/108/16
f 112/76/11 100/137/11 97/131/11
f 107/140/11 99/130/11 102/108/11
f 115/141/11 127/127/11 123/138/11
f 109/119/11 101/139/11 100/137/11
f 106/142/11 102/108/11 103/110/11
f 114/143/11 123/138/11 122/135/11
f 120/111/11 124/133/11 128/121/11
f 108/136/11 104/109/11 101/139/11
f 118/123/9 129/144/9 106/142/9
f 115/141/2 144/145/2 119/125/2
f 114/143/3 140/146/3 115/141/3
f 111/134/4 137/147/4 114/143/4
f 142/148/9 159/149/9 130/150/9
f 119/125/1 141/151/1 118/152/1
f 107/140/6 133/153/6 110/128/6
f 110/128/5 136/154/5 111/134/5
f 130/150/17 132/155/17 129/144/17
f 135/156/15 133/157/15 134/158/15
f 138/159/13 140/146/13 137/147/13
f 142/148/18 129/144/18 141/160/18
f 139/114/12 144/145/12 140/146/12
f 135/156/14 137/147/14 136/154/14
f 142/161/10 144/145/10 143/116/10
f 134/162/16 132/155/16 131/163/16
f 106/142/8 132/155/8 107/140/8
f 139/114/3 152/164/3 150/165/3
f 130/150/8 158/166/8 131/163/8
f 151/167/3 172/168/3 149/169/3
f 135/156/4 152/164/4 138/159/4
f 134/158/5 154/170/5 135/156/5
f 131/163/6 155/171/6 134/162/6
f 157/172/6 164/173/6 156/174/6
f 147/175/10 145/115/10 146/176/10
f 146/176/12 150/165/12 149/169/12
f 149/169/13 152/164/13 151/167/13
f 157/172/17 159/149/17 160/177/17
f 153/178/15 155/179/15 156/180/15
f 153/178/14 152/164/14 154/170/14
f 147/181/18 159/149/18 148/182/18
f 156/174/16 158/166/16 157/172/16
f 143/116/1 148/183/1 142/161/1
f 170/184/19 163/185/19 167/186/19
f 146/176/1 174/187/1 147/175/1
f 149/169/2 176/188/2 146/176/2
f 153/178/4 169/189/4 151/167/4
f 160/177/8 166/190/8 157/172/8
f 147/181/9 168/191/9 160/177/9
f 167/192/18 174/193/18 173/194/18
f 171/195/13 169/189/13 170/184/13
f 175/196/12 172/168/12 171/195/12
f 170/184/14 162/197/14 161/198/14
f 163/199/16 166/190/16 165/200/16
f 161/198/20 164/201/20 163/185/20
f 165/200/17 168/191/17 167/192/17
f 173/202/10 176/188/10 175/196/10
f 156/180/5 162/197/5 153/178/5
f 2/1/1 4/4/1 3/2/1
f 4/4/2 6/6/2 5/5/2
f 6/6/3 8/8/3 7/7/3
f 8/8/4 10/10/4 9/9/4
f 10/10/5 12/12/5 11/11/5
f 12/12/6 14/15/6 13/13/6
f 6/6/7 4/4/7 2/1/7
f 2/1/7 16/203/7 14/14/7
f 14/14/7 12/12/7 10/10/7
f 10/10/7 8/8/7 14/14/7
f 8/8/7 6/6/7 14/14/7
f 14/15/8 16/17/8 15/16/8
f 16/17/9 2/204/9 1/18/9
f 7/7/3 31/26/3 29/19/3
f 1/18/9 26/205/9 39/20/9
f 13/13/6 37/27/6 35/21/6
f 5/5/2 29/19/2 27/22/2
f 34/23/4 65/60/4 63/24/4
f 9/9/4 33/28/4 31/26/4
f 15/16/8 39/20/8 37/27/8
f 11/11/5 35/21/5 33/28/5
f 22/29/10 21/36/10 24/30/10
f 38/32/11 36/47/11 44/33/11
f 28/35/11 25/73/11 24/30/11
f 31/26/11 33/28/11 41/37/11
f 32/25/11 30/52/11 19/39/11
f 35/21/11 37/27/11 45/41/11
f 26/43/11 27/22/11 22/29/11
f 25/44/11 40/53/11 48/45/11
f 36/47/11 34/23/11 42/48/11
f 3/2/1 27/22/1 26/43/1
f 20/49/12 19/39/12 21/36/12
f 18/38/13 17/40/13 19/39/13
f 18/38/14 41/37/14 42/48/14
f 43/42/15 44/33/15 42/48/15
f 45/41/16 46/34/16 44/33/16
f 47/50/17 48/45/17 46/34/17
f 23/51/18 24/46/18 48/45/18
f 27/22/11 29/19/11 20/49/11
f 37/27/11 39/20/11 47/50/11
f 34/23/11 32/25/11 17/40/11
f 33/28/11 35/21/11 43/42/11
f 30/52/11 28/35/11 21/36/11
f 40/53/11 38/32/11 46/34/11
f 29/19/11 31/26/11 18/38/11
f 39/20/11 26/205/11 23/51/11
f 30/52/2 61/59/2 57/54/2
f 40/53/8 71/64/8 69/55/8
f 70/56/6 76/85/6 78/57/6
f 32/25/3 63/24/3 61/59/3
f 36/47/5 67/65/5 65/60/5
f 59/61/9 86/206/9 73/62/9
f 25/44/9 60/71/9 71/64/9
f 38/32/6 69/55/6 67/65/6
f 59/66/10 60/72/10 57/54/10
f 58/67/12 57/54/12 61/59/12
f 62/68/13 61/59/13 63/24/13
f 66/70/14 64/69/14 63/24/14
f 66/70/15 65/60/15 67/65/15
f 68/58/16 67/65/16 69/55/16
f 70/56/17 69/55/17 71/64/17
f 72/63/18 71/64/18 60/71/18
f 28/35/1 57/54/1 60/72/1
f 64/69/3 81/79/3 84/74/3
f 77/75/5 109/119/5 112/76/5
f 58/67/1 88/83/1 86/78/1
f 66/70/4 80/84/4 81/79/4
f 54/80/17 53/86/17 56/81/17
f 62/68/2 84/74/2 88/83/2
f 68/58/5 78/57/5 80/84/5
f 76/85/11 73/62/11 56/81/11
f 88/83/11 84/74/11 92/87/11
f 82/89/11 83/94/11 91/90/11
f 74/92/11 75/96/11 54/80/11
f 78/57/11 76/85/11 53/86/11
f 83/94/11 87/104/11 95/95/11
f 75/96/11 77/75/11 51/97/11
f 80/84/11 78/57/11 52/93/11
f 72/63/8 73/62/8 76/85/8
f 50/99/15 49/98/15 52/93/15
f 90/91/13 91/90/13 92/87/13
f 94/101/18 55/82/18 56/81/18
f 95/95/12 96/88/12 92/87/12
f 90/91/14 89/100/14 49/98/14
f 94/103/10 93/106/10 96/88/10
f 51/97/16 52/93/16 53/86/16
f 79/77/11 82/89/11 90/91/11
f 84/74/11 81/79/11 89/100/11
f 81/79/11 80/84/11 49/98/11
f 77/75/11 79/77/11 50/99/11
f 87/104/11 85/118/11 94/103/11
f 85/105/11 74/92/11 55/82/11
f 86/78/11 88/83/11 96/88/11
f 73/62/11 86/206/11 93/102/11
f 85/105/9 117/207/9 105/107/9
f 102/108/17 101/139/17 104/109/17
f 83/94/2 116/112/2 120/111/2
f 82/89/3 113/113/3 116/112/3
f 79/77/4 112/76/4 113/113/4
f 139/114/2 150/165/2 145/115/2
f 87/104/1 120/111/1 117/117/1
f 75/96/6 108/136/6 109/119/6
f 105/107/11 117/207/11 125/120/11
f 117/117/11 120/111/11 128/121/11
f 118/123/11 106/142/11 103/110/11
f 119/125/11 118/152/11 126/126/11
f 110/128/11 111/134/11 98/129/11
f 113/113/11 112/76/11 97/131/11
f 116/112/11 113/113/11 121/132/11
f 111/134/11 114/143/11 122/135/11
f 74/92/8 105/107/8 108/136/8
f 99/130/15 98/129/15 97/131/15
f 123/138/13 124/133/13 121/132/13
f 126/124/18 103/110/18 104/109/18
f 123/138/12 127/127/12 128/121/12
f 122/135/14 121/132/14 97/131/14
f 126/126/10 125/122/10 128/121/10
f 99/130/16 100/137/16 101/139/16
f 112/76/11 109/119/11 100/137/11
f 107/140/11 110/128/11 99/130/11
f 115/141/11 119/125/11 127/127/11
f 109/119/11 108/136/11 101/139/11
f 106/142/11 107/140/11 102/108/11
f 114/143/11 115/141/11 123/138/11
f 120/111/11 116/112/11 124/133/11
f 108/136/11 105/107/11 104/109/11
f 118/123/9 141/160/9 129/144/9
f 115/141/2 140/146/2 144/145/2
f 114/143/3 137/147/3 140/146/3
f 111/134/4 136/154/4 137/147/4
f 142/148/9 148/182/9 159/149/9
f 119/125/1 144/145/1 141/151/1
f 107/140/6 132/155/6 133/153/6
f 110/128/5 133/153/5 136/154/5
f 130/150/17 131/163/17 132/155/17
f 135/156/15 136/154/15 133/157/15
f 138/159/13 139/114/13 140/146/13
f 142/148/18 130/150/18 129/144/18
f 139/114/12 143/116/12 144/145/12
f 135/156/14 138/159/14 137/147/14
f 142/161/10 141/151/10 144/145/10
f 134/162/16 133/153/16 132/155/16
f 106/142/8 129/144/8 132/155/8
f 139/114/3 138/159/3 152/164/3
f 130/150/8 159/149/8 158/166/8
f 151/167/3 169/189/3 172/168/3
f 135/156/4 154/170/4 152/164/4
f 134/158/5 155/179/5 154/170/5
f 131/163/6 158/166/6 155/171/6
f 157/172/6 166/190/6 164/173/6
f 147/175/10 148/183/10 145/115/10
f 146/176/12 145/115/12 150/165/12
f 149/169/13 150/165/13 152/164/13
f 157/172/17 158/166/17 159/149/17
f 153/178/15 154/170/15 155/179/15
f 153/178/14 151/167/14 152/164/14
f 147/181/18 160/177/18 159/149/18
f 156/174/16 155/171/16 158/166/16
f 143/116/1 145/115/1 148/183/1
f 167/186/19 173/202/19 175/196/19
f 175/196/19 171/195/19 170/184/19
f 170/184/19 161/198/19 163/185/19
f 163/185/19 165/208/19 167/186/19
f 167/186/19 175/196/19 170/184/19
f 146/176/1 176/188/1 174/187/1
f 149/169/2 172/168/2 176/188/2
f 153/178/4 162/197/4 169/189/4
f 160/177/8 168/191/8 166/190/8
f 147/181/9 174/193/9 168/191/9
f 167/192/18 168/191/18 174/193/18
f 171/195/13 172/168/13 169/189/13
f 175/196/12 176/188/12 172/168/12
f 170/184/14 169/189/14 162/197/14
f 163/199/16 164/173/16 166/190/16
f 161/198/15 162/197/15 164/201/15
f 165/200/17 166/190/17 168/191/17
f 173/202/10 174/187/10 176/188/10
f 156/180/5 164/201/5 162/197/5
