# Blender v2.79 (sub 0) OBJ File: 'Level1_general.blend'
# www.blender.org
mtllib Level1_general.mtl
o Cylinder_Cylinder.004
v -3.752683 7.643228 3.180521
v -3.752683 10.126010 3.180521
v -3.255780 7.643228 3.361379
v -3.255780 10.126010 3.361379
v -2.991383 7.643228 3.819327
v -2.991383 10.126010 3.819327
v -3.083207 7.643228 4.340086
v -3.083207 10.126010 4.340086
v -3.488286 7.643228 4.679988
v -3.488286 10.126010 4.679988
v -4.017079 7.643228 4.679988
v -4.017079 10.126010 4.679988
v -4.422158 7.643228 4.340086
v -4.422158 10.126010 4.340086
v -4.513982 7.643228 3.819327
v -4.513982 10.126010 3.819327
v -4.249586 7.643228 3.361379
v -4.249586 10.126010 3.361379
vn 0.3420 0.0000 -0.9397
vn 0.8660 0.0000 -0.5000
vn 0.9848 0.0000 0.1736
vn 0.6428 0.0000 0.7660
vn 0.0000 0.0000 1.0000
vn -0.6428 0.0000 0.7660
vn -0.9848 0.0000 0.1736
vn 0.0000 1.0000 0.0000
vn -0.8660 0.0000 -0.5000
vn -0.3420 0.0000 -0.9397
vn 0.0000 -1.0000 0.0000
usemtl None
s off
f 2//1 3//1 1//1
f 4//2 5//2 3//2
f 6//3 7//3 5//3
f 8//4 9//4 7//4
f 10//5 11//5 9//5
f 12//6 13//6 11//6
f 14//7 15//7 13//7
f 2//8 12//8 8//8
f 16//9 17//9 15//9
f 18//10 1//10 17//10
f 17//11 3//11 11//11
f 2//1 4//1 3//1
f 4//2 6//2 5//2
f 6//3 8//3 7//3
f 8//4 10//4 9//4
f 10//5 12//5 11//5
f 12//6 14//6 13//6
f 14//7 16//7 15//7
f 6//8 4//8 8//8
f 4//8 2//8 8//8
f 2//8 18//8 16//8
f 16//8 14//8 2//8
f 14//8 12//8 2//8
f 12//8 10//8 8//8
f 16//9 18//9 17//9
f 18//10 2//10 1//10
f 17//11 1//11 3//11
f 3//11 5//11 11//11
f 5//11 7//11 11//11
f 7//11 9//11 11//11
f 11//11 13//11 15//11
f 15//11 17//11 11//11
o Cube.002
v -15.317077 -0.272339 8.309716
v -15.317077 -0.205400 8.309716
v -15.317077 -0.272339 -5.008395
v -15.317077 -0.205400 -5.008395
v 9.229150 -0.272339 8.309716
v 9.229150 -0.205400 8.309716
v 9.229150 -0.272339 -5.008395
v 9.229150 -0.205400 -5.008395
v -4.017079 -0.205400 4.679988
v -4.017079 -0.272339 4.679988
v -3.488286 -0.205400 4.679988
v -3.488286 -0.272339 4.679988
v -3.255780 -0.205400 3.361379
v -3.255780 -0.272339 3.361379
v -3.752683 -0.205400 3.180521
v -3.752683 -0.272339 3.180521
v -3.083207 -0.205400 4.340087
v -3.083207 -0.272339 4.340086
v -4.422158 -0.205400 4.340087
v -4.422158 -0.272339 4.340086
v -4.249586 -0.205400 3.361379
v -4.249586 -0.272339 3.361379
v -4.513982 -0.205400 3.819327
v -4.513982 -0.272339 3.819327
v -2.991383 -0.205400 3.819327
v -2.991383 -0.272339 3.819327
vn -1.0000 0.0000 0.0000
vn 0.0000 0.0000 -1.0000
vn 1.0000 0.0000 0.0000
vn 0.0000 0.0000 1.0000
vn 0.0000 -1.0000 0.0000
vn 0.0000 1.0000 0.0000
vn -0.8660 0.0000 0.5000
vn 0.3420 0.0000 0.9397
vn -0.9848 0.0000 -0.1736
vn 0.6428 0.0000 -0.7660
vn 0.9848 0.0000 -0.1736
vn -0.6428 0.0000 -0.7660
vn 0.8660 0.0000 0.5000
vn -0.3420 0.0000 0.9397
usemtl None
s off
f 20//12 21//12 19//12
f 22//13 25//13 21//13
f 26//14 23//14 25//14
f 24//15 19//15 23//15
f 25//16 32//16 34//16
f 22//17 39//17 33//17
f 27//17 37//17 20//17
f 43//18 32//18 44//18
f 19//16 30//16 23//16
f 33//19 40//19 34//19
f 35//20 44//20 36//20
f 37//21 28//21 38//21
f 41//22 38//22 42//22
f 29//23 36//23 30//23
f 39//24 42//24 40//24
f 31//25 34//25 32//25
f 27//13 30//13 28//13
f 20//12 22//12 21//12
f 22//13 26//13 25//13
f 26//14 24//14 23//14
f 24//15 20//15 19//15
f 19//16 21//16 42//16
f 21//16 25//16 34//16
f 40//16 21//16 34//16
f 25//16 23//16 44//16
f 25//16 44//16 32//16
f 40//16 42//16 21//16
f 24//17 26//17 43//17
f 26//17 22//17 33//17
f 31//17 26//17 33//17
f 22//17 20//17 41//17
f 22//17 41//17 39//17
f 31//17 43//17 26//17
f 24//17 43//17 35//17
f 24//17 35//17 29//17
f 37//17 41//17 20//17
f 24//17 29//17 20//17
f 29//17 27//17 20//17
f 43//18 31//18 32//18
f 19//16 42//16 38//16
f 19//16 38//16 28//16
f 36//16 44//16 23//16
f 19//16 28//16 30//16
f 30//16 36//16 23//16
f 33//19 39//19 40//19
f 35//20 43//20 44//20
f 37//21 27//21 28//21
f 41//22 37//22 38//22
f 29//23 35//23 36//23
f 39//24 41//24 42//24
f 31//25 33//25 34//25
f 27//13 29//13 30//13
o Cylinder.001_Cylinder.005
v -3.752683 0.829055 -4.591882
v -3.752683 2.829055 -4.591882
v -3.109895 0.829055 -4.357926
v -3.109895 2.829055 -4.357926
v -2.767875 0.829055 -3.765530
v -2.767875 2.829055 -3.765530
v -2.886657 0.829055 -3.091882
v -2.886657 2.829055 -3.091882
v -3.410663 0.829055 -2.652189
v -3.410663 2.829055 -2.652189
v -4.094703 0.829055 -2.652189
v -4.094703 2.829055 -2.652189
v -4.618708 0.829055 -3.091882
v -4.618708 2.829055 -3.091882
v -4.737491 0.829055 -3.765530
v -4.737491 2.829055 -3.765530
v -4.395471 0.829055 -4.357926
v -4.395471 2.829055 -4.357926
vn 0.3420 0.0000 -0.9397
vn 0.8660 0.0000 -0.5000
vn 0.9848 0.0000 0.1736
vn 0.6428 0.0000 0.7660
vn -0.0000 0.0000 1.0000
vn -0.6428 0.0000 0.7660
vn -0.9848 0.0000 0.1736
vn 0.0000 1.0000 0.0000
vn -0.8660 0.0000 -0.5000
vn -0.3420 0.0000 -0.9397
vn 0.0000 -1.0000 0.0000
usemtl None
s off
f 46//26 47//26 45//26
f 48//27 49//27 47//27
f 50//28 51//28 49//28
f 52//29 53//29 51//29
f 54//30 55//30 53//30
f 56//31 57//31 55//31
f 58//32 59//32 57//32
f 46//33 56//33 52//33
f 60//34 61//34 59//34
f 62//35 45//35 61//35
f 61//36 47//36 55//36
f 46//26 48//26 47//26
f 48//27 50//27 49//27
f 50//28 52//28 51//28
f 52//29 54//29 53//29
f 54//30 56//30 55//30
f 56//31 58//31 57//31
f 58//32 60//32 59//32
f 50//33 48//33 52//33
f 48//33 46//33 52//33
f 46//33 62//33 60//33
f 60//33 58//33 46//33
f 58//33 56//33 46//33
f 56//33 54//33 52//33
f 60//34 62//34 61//34
f 62//35 46//35 45//35
f 61//36 45//36 47//36
f 47//36 49//36 55//36
f 49//36 51//36 55//36
f 51//36 53//36 55//36
f 55//36 57//36 59//36
f 59//36 61//36 55//36
o Cylinder.002_Cylinder.006
v -3.752683 4.341897 2.214485
v -3.752683 6.341897 2.214485
v -3.109895 4.341897 2.448441
v -3.109895 6.341897 2.448441
v -2.767875 4.341897 3.040837
v -2.767875 6.341897 3.040837
v -2.886657 4.341897 3.714485
v -2.886657 6.341897 3.714485
v -3.410663 4.341897 4.154178
v -3.410663 6.341897 4.154178
v -4.094703 4.341897 4.154178
v -4.094703 6.341897 4.154178
v -4.618708 4.341897 3.714485
v -4.618708 6.341897 3.714485
v -4.737491 4.341897 3.040837
v -4.737491 6.341897 3.040837
v -4.395471 4.341897 2.448441
v -4.395471 6.341897 2.448441
vn 0.3420 0.0000 -0.9397
vn 0.8660 0.0000 -0.5000
vn 0.9848 0.0000 0.1736
vn 0.6428 0.0000 0.7660
vn 0.0000 0.0000 1.0000
vn -0.6428 0.0000 0.7660
vn -0.9848 0.0000 0.1736
vn 0.0000 1.0000 0.0000
vn -0.8660 0.0000 -0.5000
vn -0.3420 0.0000 -0.9397
vn 0.0000 -1.0000 0.0000
usemtl None
s off
f 64//37 65//37 63//37
f 66//38 67//38 65//38
f 68//39 69//39 67//39
f 70//40 71//40 69//40
f 72//41 73//41 71//41
f 74//42 75//42 73//42
f 76//43 77//43 75//43
f 64//44 74//44 70//44
f 78//45 79//45 77//45
f 80//46 63//46 79//46
f 79//47 65//47 73//47
f 64//37 66//37 65//37
f 66//38 68//38 67//38
f 68//39 70//39 69//39
f 70//40 72//40 71//40
f 72//41 74//41 73//41
f 74//42 76//42 75//42
f 76//43 78//43 77//43
f 68//44 66//44 70//44
f 66//44 64//44 70//44
f 64//44 80//44 78//44
f 78//44 76//44 64//44
f 76//44 74//44 64//44
f 74//44 72//44 70//44
f 78//45 80//45 79//45
f 80//46 64//46 63//46
f 79//47 63//47 65//47
f 65//47 67//47 73//47
f 67//47 69//47 73//47
f 69//47 71//47 73//47
f 73//47 75//47 77//47
f 77//47 79//47 73//47
