# Blender v2.79 (sub 0) OBJ File: 'Level1_well_done.blend'
# www.blender.org
o Cube.005_Cube.008
v -1.680542 -1.630714 1.743719
v -1.680542 1.630714 1.743719
v -1.680542 -1.630714 -1.743719
v -1.680542 1.630714 -1.743719
v 1.680542 -1.630714 1.743719
v 1.680542 1.630714 1.743719
v 1.680542 -1.630714 -1.743719
v 1.680542 1.630714 -1.743719
vt 0.000000 1.000000
vt 1.000000 0.000000
vt 0.000000 0.000000
vt 0.000000 1.000000
vt 1.000000 0.000000
vt 0.000000 0.000000
vt 0.000000 1.000000
vt -1.000000 0.000000
vt 0.000000 0.000000
vt 0.000000 -1.000000
vt -1.000000 0.000000
vt 0.000000 -1.000000
vt 0.000000 0.000000
vt 1.000000 1.000000
vt 1.000000 1.000000
vt -1.000000 1.000000
vt 1.000000 -1.000000
vt -1.000000 -1.000000
vn -1.0000 0.0000 0.0000
vn 0.0000 0.0000 -1.0000
vn 0.0000 0.0000 1.0000
vn 0.0000 -1.0000 0.0000
vn 0.0000 1.0000 0.0000
s off
f 2/1/1 3/2/1 1/3/1
f 4/4/2 7/5/2 3/6/2
f 6/7/3 1/8/3 5/9/3
f 7/5/4 1/10/4 3/6/4
f 4/11/5 6/12/5 8/13/5
f 2/1/1 4/14/1 3/2/1
f 4/4/2 8/15/2 7/5/2
f 6/7/3 2/16/3 1/8/3
f 7/5/4 5/17/4 1/10/4
f 4/11/5 2/18/5 6/12/5
