# Blender v2.79 (sub 0) OBJ File: 'Level1_well_done.blend'
# www.blender.org
o Torus.001
v 1.220000 0.000000 0.000000
v 1.200000 0.034641 0.000000
v 1.160000 0.034641 0.000000
v 1.140000 0.000000 0.000000
v 1.160000 -0.034641 0.000000
v 1.200000 -0.034641 0.000000
v 0.934574 0.000000 -0.784201
v 0.919253 0.034641 -0.771345
v 0.888611 0.034641 -0.745634
v 0.873291 0.000000 -0.732778
v 0.888611 -0.034641 -0.745634
v 0.919253 -0.034641 -0.771345
v 0.211851 0.000000 -1.201465
v 0.208378 0.034641 -1.181769
v 0.201432 0.034641 -1.142377
v 0.197959 0.000000 -1.122681
v 0.201432 -0.034641 -1.142377
v 0.208378 -0.034641 -1.181769
v -0.610000 0.000000 -1.056551
v -0.600000 0.034641 -1.039231
v -0.580000 0.034641 -1.004590
v -0.570000 0.000000 -0.987269
v -0.580000 -0.034641 -1.004590
v -0.600000 -0.034641 -1.039231
v -1.146425 0.000000 -0.417265
v -1.127631 0.034641 -0.410425
v -1.090043 0.034641 -0.396744
v -1.071249 0.000000 -0.389903
v -1.090043 -0.034641 -0.396744
v -1.127631 -0.034641 -0.410425
v -1.146425 0.000000 0.417264
v -1.127631 0.034641 0.410424
v -1.090043 0.034641 0.396743
v -1.071250 0.000000 0.389903
v -1.090043 -0.034641 0.396743
v -1.127631 -0.034641 0.410424
v -0.610000 0.000000 1.056551
v -0.600000 0.034641 1.039231
v -0.580000 0.034641 1.004590
v -0.570000 0.000000 0.987269
v -0.580000 -0.034641 1.004590
v -0.600000 -0.034641 1.039231
v 0.211851 0.000000 1.201465
v 0.208378 0.034641 1.181769
v 0.201432 0.034641 1.142377
v 0.197959 0.000000 1.122681
v 0.201432 -0.034641 1.142377
v 0.208378 -0.034641 1.181769
v 0.934574 0.000000 0.784201
v 0.919253 0.034641 0.771345
v 0.888611 0.034641 0.745634
v 0.873291 0.000000 0.732778
v 0.888611 -0.034641 0.745634
v 0.919253 -0.034641 0.771345
vt 0.892100 0.500000
vt 0.500000 0.517321
vt 0.500000 0.500000
vt -0.040373 0.885673
vt 0.080000 0.500000
vt 0.100000 0.500000
vt 0.872817 0.517321
vt 0.500000 0.500000
vt 0.500000 0.517321
vt 0.866389 0.500000
vt 0.500000 0.482679
vt 0.080000 0.500000
vt -0.040373 0.885673
vt 0.100000 0.500000
vt 0.885673 0.482679
vt 0.500000 0.482679
vt 0.605925 0.500000
vt 0.959627 0.517321
vt 0.967287 0.500000
vt 0.604189 1.090885
vt 0.944306 0.872817
vt 0.959627 0.885673
vt 0.600716 0.517321
vt 0.936645 0.500000
vt 0.944306 0.517321
vt 0.598979 0.500000
vt 0.944306 0.482679
vt 0.600716 1.071188
vt 0.959627 0.885673
vt 0.944306 0.872817
vt 0.604189 0.482679
vt 0.959627 0.482679
vt 0.195000 0.500000
vt 0.604189 0.517321
vt 0.200000 0.019615
vt 0.600716 0.071188
vt 0.604189 0.090885
vt 0.210000 0.517321
vt 0.215000 0.500000
vt 0.600716 0.482679
vt 0.210000 0.002295
vt 0.604189 0.090885
vt 0.600716 0.071188
vt -0.291368 0.500000
vt 0.019615 0.517321
vt 0.028275 0.500000
vt -0.063815 -0.294788
vt 0.210000 0.002295
vt -0.301628 0.517321
vt -0.006365 0.500000
vt 0.002295 0.517321
vt 0.694952 0.500000
vt 1.002295 0.482679
vt 0.993635 0.500000
vt -0.045022 -0.301628
vt 0.200000 0.019615
vt -0.294788 0.482679
vt 0.019615 0.482679
vt 0.291368 0.500000
vt 0.705212 0.517321
vt 0.708632 0.500000
vt 0.936184 0.294788
vt 0.954978 0.698372
vt 0.936185 0.705212
vt 0.301628 0.517321
vt 0.698372 0.517321
vt 0.305049 0.500000
vt 0.698372 0.482679
vt 0.954978 0.301628
vt 0.936185 0.705212
vt 0.954978 0.698372
vt 0.294788 0.482679
vt 0.705212 0.482679
vt -0.028276 0.500000
vt 0.294788 0.517321
vt 1.200000 -0.019615
vt 0.954978 0.301628
vt -0.002295 0.517321
vt -0.002295 0.482679
vt 0.301628 0.482679
vt 1.210000 -0.002295
vt 0.936184 0.294788
vt 0.605925 0.500000
vt 0.200000 0.517321
vt 0.195000 0.500000
vt 0.604189 0.909115
vt 0.210000 0.997705
vt 0.200000 0.980385
vt 0.600716 0.517321
vt 0.215000 0.500000
vt 0.210000 0.517321
vt 0.598979 0.500000
vt 0.210000 0.482679
vt 0.600716 0.928812
vt 0.200000 0.980385
vt 0.210000 0.997705
vt 0.200000 0.482679
vt 0.959627 0.517321
vt 0.604189 0.517321
vt 0.944306 1.127183
vt 0.600716 0.928812
vt 0.936645 0.500000
vt 0.944306 0.482679
vt 0.600716 0.482679
vt 0.944306 1.127183
vt 0.604189 0.909115
vt 0.959627 0.482679
vt 0.604189 0.482679
vt 0.114327 0.517321
vt 0.107900 0.500000
vt 1.100000 0.500000
vt 0.944306 0.127183
vt 0.959627 0.114327
vt 0.133611 0.500000
vt 0.127183 0.517321
vt 0.127183 0.482679
vt 1.080000 0.500000
vt 0.959627 0.114327
vt 0.944306 0.127183
vt 0.114327 0.482679
vt 0.885673 0.517321
vt -0.055694 0.872817
vt 0.872817 0.482679
vt -0.055694 0.872817
vt 0.600716 1.071188
vt 0.604189 1.090885
vt 0.200000 0.517321
vt 0.210000 0.482679
vt 0.200000 0.482679
vt -0.294788 0.517321
vt -0.045022 -0.301628
vt -0.305048 0.500000
vt -0.063815 -0.294788
vt -0.019615 0.517321
vt 1.210000 -0.002295
vt 0.006365 0.500000
vt 1.200000 -0.019615
vt -0.019615 0.482679
vt 0.967287 0.500000
vt 0.959627 1.114327
vt 0.944306 0.517321
vt 0.959627 1.114327
vt 1.080000 0.500000
vt 1.100000 0.500000
vn 0.8260 0.4769 -0.3006
vn 0.0000 1.0000 0.0000
vn -0.8260 0.4769 0.3006
vn -0.8260 -0.4769 0.3006
vn 0.0000 -1.0000 0.0000
vn 0.8260 -0.4769 -0.3006
vn 0.4395 0.4769 -0.7612
vn -0.4395 0.4769 0.7612
vn -0.4395 -0.4769 0.7612
vn 0.4395 -0.4769 -0.7612
vn -0.1526 0.4769 -0.8656
vn 0.1526 0.4769 0.8656
vn 0.1526 -0.4769 0.8656
vn -0.1526 -0.4769 -0.8656
vn -0.6733 0.4769 -0.5650
vn 0.6733 0.4769 0.5650
vn 0.6733 -0.4769 0.5650
vn -0.6733 -0.4769 -0.5650
vn -0.8790 0.4769 -0.0000
vn 0.8790 0.4769 0.0000
vn 0.8790 -0.4769 0.0000
vn -0.8790 -0.4769 -0.0000
vn -0.6733 0.4769 0.5650
vn 0.6733 0.4769 -0.5650
vn 0.6733 -0.4769 -0.5650
vn -0.6733 -0.4769 0.5650
vn -0.1526 0.4769 0.8656
vn 0.1526 0.4769 -0.8656
vn 0.1526 -0.4769 -0.8656
vn -0.1526 -0.4769 0.8656
vn 0.4395 0.4769 0.7612
vn -0.4395 0.4769 -0.7612
vn -0.4395 -0.4769 -0.7612
vn 0.4395 -0.4769 0.7612
vn 0.8260 0.4769 0.3006
vn -0.8260 0.4769 -0.3006
vn -0.8260 -0.4769 -0.3006
vn 0.8260 -0.4769 0.3006
s off
f 7/1/1 2/2/1 1/3/1
f 8/4/2 3/5/2 2/6/2
f 9/7/3 4/8/3 3/9/3
f 10/10/4 5/11/4 4/8/4
f 5/12/5 12/13/5 6/14/5
f 12/15/6 1/3/6 6/16/6
f 13/17/7 8/18/7 7/19/7
f 14/20/2 9/21/2 8/22/2
f 15/23/8 10/24/8 9/25/8
f 16/26/9 11/27/9 10/24/9
f 17/28/5 12/29/5 11/30/5
f 18/31/10 7/19/10 12/32/10
f 19/33/11 14/34/11 13/17/11
f 20/35/2 15/36/2 14/37/2
f 21/38/12 16/26/12 15/23/12
f 22/39/13 17/40/13 16/26/13
f 23/41/5 18/42/5 17/43/5
f 18/31/14 19/33/14 13/17/14
f 25/44/15 20/45/15 19/46/15
f 26/47/2 21/48/2 20/35/2
f 27/49/16 22/50/16 21/51/16
f 28/52/17 23/53/17 22/54/17
f 29/55/5 24/56/5 23/41/5
f 30/57/18 19/46/18 24/58/18
f 31/59/19 26/60/19 25/61/19
f 32/62/2 27/63/2 26/64/2
f 33/65/20 28/52/20 27/66/20
f 34/67/21 29/68/21 28/52/21
f 35/69/5 30/70/5 29/71/5
f 36/72/22 25/61/22 30/73/22
f 37/74/23 32/75/23 31/59/23
f 38/76/2 33/77/2 32/62/2
f 39/78/24 34/67/24 33/65/24
f 34/67/25 41/79/25 35/80/25
f 41/81/5 36/82/5 35/69/5
f 36/72/26 37/74/26 31/59/26
f 43/83/27 38/84/27 37/85/27
f 44/86/2 39/87/2 38/88/2
f 45/89/28 40/90/28 39/91/28
f 46/92/29 41/93/29 40/90/29
f 47/94/5 42/95/5 41/96/5
f 42/97/30 43/83/30 37/85/30
f 43/83/31 50/98/31 44/99/31
f 44/86/2 51/100/2 45/101/2
f 45/89/32 52/102/32 46/92/32
f 46/92/33 53/103/33 47/104/33
f 53/105/5 48/106/5 47/94/5
f 54/107/34 43/83/34 48/108/34
f 1/3/35 50/109/35 49/110/35
f 2/111/2 51/112/2 50/113/2
f 3/9/36 52/114/36 51/115/36
f 4/8/37 53/116/37 52/114/37
f 5/117/5 54/118/5 53/119/5
f 6/16/38 49/110/38 54/120/38
f 7/1/1 8/121/1 2/2/1
f 8/4/2 9/122/2 3/5/2
f 9/7/3 10/10/3 4/8/3
f 10/10/4 11/123/4 5/11/4
f 5/12/5 11/124/5 12/13/5
f 12/15/6 7/1/6 1/3/6
f 13/17/7 14/34/7 8/18/7
f 14/20/2 15/125/2 9/21/2
f 15/23/8 16/26/8 10/24/8
f 16/26/9 17/40/9 11/27/9
f 17/28/5 18/126/5 12/29/5
f 18/31/10 13/17/10 7/19/10
f 19/33/11 20/127/11 14/34/11
f 20/35/2 21/48/2 15/36/2
f 21/38/12 22/39/12 16/26/12
f 22/39/13 23/128/13 17/40/13
f 23/41/5 24/56/5 18/42/5
f 18/31/14 24/129/14 19/33/14
f 25/44/15 26/130/15 20/45/15
f 26/47/2 27/131/2 21/48/2
f 27/49/16 28/132/16 22/50/16
f 28/52/17 29/68/17 23/53/17
f 29/55/5 30/133/5 24/56/5
f 30/57/18 25/44/18 19/46/18
f 31/59/19 32/75/19 26/60/19
f 32/62/2 33/77/2 27/63/2
f 33/65/20 34/67/20 28/52/20
f 34/67/21 35/80/21 29/68/21
f 35/69/5 36/82/5 30/70/5
f 36/72/22 31/59/22 25/61/22
f 37/74/23 38/134/23 32/75/23
f 38/76/2 39/135/2 33/77/2
f 39/78/24 40/136/24 34/67/24
f 34/67/25 40/136/25 41/79/25
f 41/81/5 42/137/5 36/82/5
f 36/72/26 42/138/26 37/74/26
f 43/83/27 44/99/27 38/84/27
f 44/86/2 45/101/2 39/87/2
f 45/89/28 46/92/28 40/90/28
f 46/92/29 47/104/29 41/93/29
f 47/94/5 48/106/5 42/95/5
f 42/97/30 48/108/30 43/83/30
f 43/83/31 49/139/31 50/98/31
f 44/86/2 50/140/2 51/100/2
f 45/89/32 51/141/32 52/102/32
f 46/92/33 52/102/33 53/103/33
f 53/105/5 54/142/5 48/106/5
f 54/107/34 49/139/34 43/83/34
f 1/3/35 2/2/35 50/109/35
f 2/111/2 3/143/2 51/112/2
f 3/9/36 4/8/36 52/114/36
f 4/8/37 5/11/37 53/116/37
f 5/117/5 6/144/5 54/118/5
f 6/16/38 1/3/38 49/110/38
